<svg width="60" height="60" viewBox="0 0 60 60" fill="none" xmlns="http://www.w3.org/2000/svg">
<rect width="60" height="60" rx="30" fill="#F0F1F2"/>
<path fill-rule="evenodd" clip-rule="evenodd" d="M23.0493 20.8375C20.2849 22.9377 18.5 26.2604 18.5 30C18.5 33.4058 19.9786 36.4642 22.3337 38.5721C22.365 38.6001 22.3965 38.628 22.4282 38.6557C22.608 38.5969 22.793 38.5261 22.9779 38.4392C23.6481 38.1244 24.2004 37.6479 24.3974 36.8598C24.6077 36.0185 24.4174 35.5316 24.1578 34.8827L24.1535 34.872C23.8721 34.1686 23.5261 33.3035 23.8557 31.9848C24.0162 31.3427 24.2672 30.8678 24.5799 30.4881C24.8744 30.1304 25.2067 29.8814 25.4674 29.6859L25.4875 29.6708C25.7655 29.4623 25.9654 29.3087 26.1372 29.1C26.2985 28.9042 26.4537 28.6343 26.5641 28.1931C26.7976 27.259 26.6593 26.8012 26.4525 26.4704C26.3319 26.2775 26.1638 26.0907 25.9328 25.8677C25.8584 25.7959 25.7627 25.707 25.6583 25.6099L25.658 25.6096L25.6579 25.6096L25.6579 25.6096L25.6578 25.6095C25.4891 25.4528 25.2976 25.2749 25.1363 25.1137C24.4771 24.4544 23.98 23.4246 23.6138 22.4862C23.3918 21.9174 23.2034 21.3425 23.0493 20.8375ZM23.8159 39.6977C24.6656 39.2541 25.5331 38.5014 25.8526 37.2236C26.1823 35.9049 25.8362 35.0397 25.5548 34.3363L25.5505 34.3256C25.291 33.6768 25.1006 33.1898 25.3109 32.3486C25.4213 31.9073 25.5765 31.6374 25.7378 31.4416C25.9096 31.233 26.1095 31.0794 26.3875 30.8708L26.4076 30.8558C26.6683 30.6603 27.0006 30.4113 27.2951 30.0536C27.6078 29.6739 27.8588 29.199 28.0193 28.5569C28.3274 27.3244 28.1949 26.4279 27.7245 25.6754C27.5066 25.3267 27.2346 25.0395 26.9747 24.7886C26.8464 24.6647 26.736 24.5628 26.6293 24.4643C26.4895 24.3352 26.356 24.212 26.197 24.053C25.7729 23.6289 25.3672 22.8532 25.0112 21.9409C24.7437 21.2553 24.5264 20.5533 24.3579 19.9769C26.0248 19.0365 27.9497 18.5 30 18.5C31.4319 18.5 32.8027 18.7617 34.0672 19.2399C33.7359 19.9574 33.4112 20.8706 33.2951 21.762C33.1479 22.8926 33.3144 24.3382 34.7158 24.9766C35.3486 25.2649 36.1207 25.5094 36.879 25.7397C37.009 25.7792 37.1389 25.8183 37.2682 25.8573L37.2686 25.8574L37.2689 25.8575C37.9125 26.0515 38.5444 26.2419 39.1282 26.4547C39.8358 26.7125 40.4011 26.9788 40.7794 27.2705C41.1475 27.5543 41.25 27.7885 41.25 28C41.25 28.1663 41.3041 28.3199 41.3957 28.4442C41.4645 28.953 41.5 29.4724 41.5 30C41.5 31.5331 41.2 32.9962 40.6555 34.3337C40.6214 34.3513 40.5883 34.3718 40.5564 34.3952C37.6015 36.5622 35.4344 37.3262 33.171 36.4959C32.1913 36.1365 31.276 36.1654 30.4949 36.5018C29.726 36.8329 29.1503 37.4343 28.7787 38.116C28.2569 39.0731 28.0784 40.3221 28.4404 41.3953C26.7552 41.167 25.1868 40.574 23.8159 39.6977ZM30.1991 41.4983C33.7501 41.438 36.909 39.7683 38.978 37.1872C36.8667 38.3112 34.8333 38.7034 32.6544 37.9041C31.9985 37.6635 31.4828 37.7096 31.0882 37.8795C30.6816 38.0546 30.3373 38.3907 30.0957 38.834C29.5866 39.7678 29.6549 40.8994 30.1967 41.4956C30.1975 41.4965 30.1983 41.4974 30.1991 41.4983ZM34.7826 21.9557C34.8748 21.2479 35.1469 20.4784 35.4324 19.8614C37.7018 21.08 39.5149 23.0382 40.5491 25.4138C40.2553 25.2789 39.9488 25.1572 39.6418 25.0453C39.014 24.8166 38.3332 24.6115 37.6897 24.4176C37.5631 24.3795 37.4379 24.3418 37.3149 24.3044C36.5478 24.0715 35.8671 23.8528 35.3377 23.6116C34.8796 23.4029 34.6587 22.9074 34.7826 21.9557ZM22.0716 40.3032C24.2659 41.9943 27.0155 43 30 43C37.1797 43 43 37.1797 43 30C43 22.8203 37.1797 17 30 17C22.8203 17 17 22.8203 17 30C17 33.8502 18.6738 37.3094 21.3333 39.6898C21.5717 39.9031 21.8179 40.1078 22.0716 40.3032Z" fill="#1F2229"/>
</svg>
