<svg width="54" height="54" viewBox="0 0 54 54" fill="none" xmlns="http://www.w3.org/2000/svg">
<path fill-rule="evenodd" clip-rule="evenodd" d="M27.0009 37.3145C27.6999 37.3145 28.2666 37.8812 28.2666 38.5801V46.7074H35.6486C36.3476 46.7074 36.9142 47.274 36.9142 47.973C36.9142 48.672 36.3476 49.2386 35.6486 49.2386H17.9766C17.2776 49.2386 16.7109 48.672 16.7109 47.973C16.7109 47.274 17.2776 46.7074 17.9766 46.7074H25.7353V38.5801C25.7353 37.8812 26.3019 37.3145 27.0009 37.3145Z" fill="#1F2229"/>
<path fill-rule="evenodd" clip-rule="evenodd" d="M16.7468 37.0725L24.1222 24.298L21.9301 23.0324L13.4586 37.7053C13.2325 38.0969 13.2325 38.5794 13.4586 38.971C13.6847 39.3626 14.1025 39.6038 14.5547 39.6038H39.4444C39.8966 39.6038 40.3144 39.3626 40.5405 38.971C40.7665 38.5794 40.7665 38.0969 40.5405 37.7053L32.069 23.0324L29.8769 24.298L37.2523 37.0725H16.7468Z" fill="#1F2229"/>
<path fill-rule="evenodd" clip-rule="evenodd" d="M27.0005 4.76153C27.4527 4.76153 27.8705 5.00276 28.0966 5.39435L38.1693 22.8409C38.3954 23.2325 38.3954 23.7149 38.1693 24.1065C37.9432 24.4981 37.5254 24.7393 37.0733 24.7393H16.9277C16.4756 24.7393 16.0578 24.4981 15.8317 24.1065C15.6056 23.7149 15.6056 23.2325 15.8317 22.8409L25.9044 5.39435C26.1305 5.00276 26.5483 4.76153 27.0005 4.76153ZM19.1199 22.2081H34.8811L27.0005 8.55841L19.1199 22.2081Z" fill="#1F2229"/>
</svg>
