<svg width="43" height="42" viewBox="0 0 43 42" fill="none" xmlns="http://www.w3.org/2000/svg">
<rect x="0.923828" width="42" height="42" rx="21" fill="#F0F1F2"/>
<path fill-rule="evenodd" clip-rule="evenodd" d="M25.9238 22H22.9238V25C22.9238 25.55 22.4738 26 21.9238 26C21.3738 26 20.9238 25.55 20.9238 25V22H17.9238C17.3738 22 16.9238 21.55 16.9238 21C16.9238 20.45 17.3738 20 17.9238 20H20.9238V17C20.9238 16.45 21.3738 16 21.9238 16C22.4738 16 22.9238 16.45 22.9238 17V20H25.9238C26.4738 20 26.9238 20.45 26.9238 21C26.9238 21.55 26.4738 22 25.9238 22ZM21.9238 30C16.9608 30 12.9238 25.962 12.9238 21C12.9238 16.037 16.9608 12 21.9238 12C26.8868 12 30.9238 16.037 30.9238 21C30.9238 25.962 26.8868 30 21.9238 30ZM10.9238 21C10.9238 27.075 15.8488 32 21.9238 32C27.9988 32 32.9238 27.075 32.9238 21C32.9238 14.925 27.9988 10 21.9238 10C15.8488 10 10.9238 14.925 10.9238 21Z" fill="#088037"/>
</svg>
