<svg width="43" height="42" viewBox="0 0 43 42" fill="none" xmlns="http://www.w3.org/2000/svg">
<rect x="0.923828" width="42" height="42" rx="21" fill="#F0F1F2"/>
<path fill-rule="evenodd" clip-rule="evenodd" d="M33.9238 21C33.9238 27.627 28.5508 33 21.9238 33C15.2968 33 9.92383 27.627 9.92383 21C9.92383 14.373 15.2968 9 21.9238 9C28.5508 9 33.9238 14.373 33.9238 21ZM21.9238 11C16.4102 11 11.9238 15.4864 11.9238 21C11.9238 26.5136 16.4102 31 21.9238 31C27.4375 31 31.9238 26.5136 31.9238 21C31.9238 15.4864 27.4375 11 21.9238 11ZM21.6828 24.651C21.4868 24.881 21.2058 25 20.9238 25C20.7148 25 20.5028 24.935 20.3238 24.8L16.3238 21.8C15.8818 21.469 15.7918 20.842 16.1238 20.4C16.4538 19.959 17.0808 19.868 17.5238 20.2L20.7738 22.638L26.1638 16.349C26.5238 15.931 27.1558 15.882 27.5748 16.241C27.9938 16.6 28.0418 17.232 27.6828 17.651L21.6828 24.651Z" fill="#088037"/>
</svg>
