<svg width="51" height="72" viewBox="0 0 51 72" fill="none" xmlns="http://www.w3.org/2000/svg">
<path fill-rule="evenodd" clip-rule="evenodd" d="M3.33417 12.9124C6.76397 6.22045 13.5189 2.13689 20.4426 2.30291C31.8409 2.57822 39.2574 9.01883 43.0504 16.798C46.8229 24.5353 47.0554 33.6893 44.0037 39.5196L43.9993 39.5279L43.9947 39.5361C40.587 45.5974 36.925 51.0285 32.902 56.995L32.9017 56.9954L32.9015 56.9957C30.2386 60.945 27.4175 65.1289 24.4074 69.8853L23.8483 70.7688L23.3228 69.8653C16.533 58.1904 9.89291 46.4811 4.79587 36.865C1.2085 30.1034 0.37843 23.8192 1.41294 18.4983L3.33417 12.9124ZM12.7375 28.6786C14.6024 35.5446 20.183 39.3216 25.1667 38.9486C29.3238 38.6389 32.2178 36.6125 33.8109 33.787C35.3936 30.98 35.6687 27.43 34.7082 24.0758C32.9348 17.8846 27.4427 12.7797 20.5908 13.863C17.8933 14.2902 15.3338 15.8324 13.7479 18.3685C12.1581 20.9111 11.5763 24.403 12.7375 28.6786Z" fill="white"/>
<path d="M43.8755 39.894C50.1699 27.9709 43.0792 2.90208 20.0664 2.34635C17.6816 2.28696 15.3097 2.74088 13.0877 3.63174C16.363 1.22217 20.2933 -0.0886637 24.2622 0.00466437C47.275 0.560391 54.1467 25.9372 48.0713 37.5523C42.2186 47.9626 35.9338 55.9345 28.073 68.3556C26.2748 69.5265 25.4828 69.9252 23.8815 70.884C30.116 60.9171 38.7678 48.9935 43.8798 39.8982L43.8755 39.894Z" fill="black"/>
<path d="M3.33417 12.9124C6.76397 6.22045 13.5189 2.13689 20.4426 2.30291C31.8409 2.57822 39.2574 9.01883 43.0504 16.798C46.8229 24.5353 47.0554 33.6893 44.0037 39.5196L43.9993 39.5279L43.9947 39.5361C40.587 45.5974 36.925 51.0285 32.902 56.995C30.2389 60.9445 27.4177 65.1285 24.4074 69.8853L23.8483 70.7688L23.3228 69.8653C16.533 58.1904 9.89292 46.4811 4.79587 36.865C1.2085 30.1034 0.378435 23.8192 1.41294 18.4983M5.91643 36.2816L5.91632 36.2814" stroke="black"/>
<path d="M12.7078 28.7801C10.5438 20.8143 14.3938 15.7484 19.1635 14.3238C16.2477 16.7428 14.5581 21.0493 16.1565 26.9396C18.0432 33.8857 23.6486 37.5992 28.5277 37.234C29.5532 37.1581 30.4947 36.9773 31.3633 36.7061C29.7795 38.0114 27.6884 38.8792 25.0791 39.0745C20.1999 39.4397 14.5946 35.7262 12.7078 28.7801Z" fill="black"/>
<path fill-rule="evenodd" clip-rule="evenodd" d="M25.1664 38.9486C20.1827 39.3216 14.6021 35.5446 12.7371 28.6786C11.576 24.403 12.1577 20.9111 13.7476 18.3685C15.3335 15.8324 17.8929 14.2902 20.5905 13.863C27.4423 12.7797 32.9344 17.8846 34.7079 24.0758C35.6683 27.43 35.3932 30.98 33.8105 33.787C32.2174 36.6125 29.3234 38.6389 25.1664 38.9486Z" stroke="black"/>
</svg>
