<svg width="54" height="54" fill="none" xmlns="http://www.w3.org/2000/svg"><path fill-rule="evenodd" clip-rule="evenodd" d="M27 37.315c.7 0 1.267.566 1.267 1.265v8.127h7.382a1.266 1.266 0 1 1 0 2.532H17.977a1.266 1.266 0 1 1 0-2.532h7.758V38.58c0-.699.567-1.265 1.266-1.265Z" fill="#1F2229"/><path fill-rule="evenodd" clip-rule="evenodd" d="m16.747 37.072 7.375-12.774-2.192-1.266-8.471 14.673a1.266 1.266 0 0 0 1.096 1.899h24.89a1.266 1.266 0 0 0 1.096-1.899l-8.472-14.673-2.192 1.266 7.375 12.774H16.747Z" fill="#1F2229"/><path fill-rule="evenodd" clip-rule="evenodd" d="M27 4.762c.453 0 .87.24 1.097.632l10.072 17.447a1.265 1.265 0 0 1-1.096 1.898H16.928a1.266 1.266 0 0 1-1.096-1.898L25.904 5.394A1.266 1.266 0 0 1 27 4.762Zm-7.88 17.446H34.88l-7.88-13.65-7.881 13.65Z" fill="#1F2229"/></svg>