<svg width="43" height="42" fill="none" xmlns="http://www.w3.org/2000/svg"><rect x=".924" width="42" height="42" rx="21" fill="#F0F1F2"/><path fill-rule="evenodd" clip-rule="evenodd" d="m29.568 27.793.346 2.561c.076.566-.296 1.09-.83 1.17a.902.902 0 0 1-.14.011c-.479 0-.898-.372-.967-.888l-.099-.731C26.026 31.297 23.856 32 21.682 32c-2.756 0-5.512-1.11-7.61-3.328-2.678-2.835-3.756-7.009-2.812-10.895.135-.553.665-.887 1.19-.744.524.142.839.706.705 1.26-.772 3.18.11 6.596 2.3 8.915 2.903 3.07 7.342 3.534 10.72 1.41l-.135-.021c-.535-.08-.907-.605-.83-1.17.077-.567.575-.959 1.107-.878l2.421.366c.05.007.095.032.142.047.04.012.078.02.117.039a.999.999 0 0 1 .49.517c.017.04.024.082.037.124.013.05.037.097.044.15Zm3.138-4.595a.984.984 0 0 1-1.153.782 1 1 0 0 1-.764-1.18c.591-2.974-.307-6.03-2.4-8.172a8.66 8.66 0 0 0-10.72-1.364l.138.02a.998.998 0 0 1 .83 1.133.987.987 0 0 1-1.107.849l-2.42-.355c-.051-.008-.095-.03-.143-.046-.04-.012-.079-.02-.117-.037a.979.979 0 0 1-.489-.501c-.017-.04-.024-.078-.037-.12-.014-.048-.037-.093-.044-.144l-.346-2.478a.997.997 0 0 1 .83-1.132.982.982 0 0 1 1.106.85l.1.707a10.585 10.585 0 0 1 13.801 1.203c2.559 2.62 3.657 6.351 2.935 9.985ZM20.924 17h1c1.946 0 3 .319 3 2 0 1.421-.87 2-3 2h-1v-4Zm-3 7a1 1 0 0 0 0 2h1v1a1 1 0 1 0 2 0v-1h2a1 1 0 1 0 0-2h-2v-1h1c4.35 0 5-2.506 5-4 0-2.654-1.682-4-5-4h-2a1 1 0 0 0-1 1v5h-1a1 1 0 0 0 0 2h1v1h-1Z" fill="#088037"/></svg>