<svg width="43" height="42" fill="none" xmlns="http://www.w3.org/2000/svg"><rect x=".924" width="42" height="42" rx="21" fill="#F0F1F2"/><path fill-rule="evenodd" clip-rule="evenodd" d="M25.924 22h-3v3c0 .55-.45 1-1 1s-1-.45-1-1v-3h-3c-.55 0-1-.45-1-1s.45-1 1-1h3v-3c0-.55.45-1 1-1s1 .45 1 1v3h3c.55 0 1 .45 1 1s-.45 1-1 1Zm-4 8c-4.963 0-9-4.038-9-9 0-4.963 4.037-9 9-9s9 4.037 9 9c0 4.962-4.037 9-9 9Zm-11-9c0 6.075 4.925 11 11 11s11-4.925 11-11-4.925-11-11-11-11 4.925-11 11Z" fill="#088037"/></svg>