<svg width="43" height="42" viewBox="0 0 43 42" fill="none" xmlns="http://www.w3.org/2000/svg">
<rect x="0.923828" width="42" height="42" rx="21" fill="#F0F1F2"></rect>
<path fill-rule="evenodd" clip-rule="evenodd" d="M29.5676 27.7928L29.9139 30.3544C29.9902 30.9195 29.6185 31.4442 29.0833 31.5249C29.0364 31.5322 28.9904 31.5353 28.9434 31.5353C28.4651 31.5353 28.0464 31.1627 27.9769 30.6473L27.8781 29.9155C26.0262 31.2972 23.8564 32 21.6816 32C18.9258 32 16.17 30.8905 14.0725 28.6715C11.394 25.8366 10.3159 21.6635 11.26 17.7772C11.395 17.2245 11.9252 16.8902 12.4505 17.033C12.9739 17.1748 13.2889 17.7389 13.1549 18.2926C12.383 21.4731 13.2645 24.8886 15.4558 27.208C18.3584 30.2778 22.7969 30.7415 26.1759 28.6176L26.0399 28.5969C25.5048 28.5162 25.133 27.9925 25.2093 27.4264C25.2866 26.8602 25.7846 26.468 26.3167 26.5487L28.738 26.9151C28.7889 26.9223 28.8329 26.9472 28.8799 26.9617C28.92 26.9741 28.9581 26.9824 28.9972 27.001C29.2154 27.1045 29.3886 27.2877 29.4864 27.5185C29.504 27.5589 29.5108 27.6003 29.5236 27.6417C29.5373 27.6924 29.5607 27.7389 29.5676 27.7928ZM32.7063 23.1983C32.6124 23.6727 32.2045 24 31.7488 24C31.6842 24 31.6187 23.993 31.5532 23.98C31.024 23.8699 30.6817 23.3414 30.7893 22.8C31.38 19.8255 30.4822 16.7709 28.3882 14.628C25.4854 11.6575 21.047 11.2101 17.6699 13.2639L17.8068 13.2839C18.3418 13.362 18.7134 13.8694 18.6372 14.4169C18.5667 14.9153 18.1481 15.2756 17.6699 15.2756C17.6239 15.2756 17.577 15.2726 17.53 15.2656L15.1094 14.9113C15.0585 14.9033 15.0145 14.8803 14.9675 14.8652C14.9274 14.8532 14.8883 14.8452 14.8502 14.8282C14.6321 14.7281 14.459 14.551 14.3612 14.3268C14.3436 14.2878 14.3367 14.2487 14.324 14.2077C14.3103 14.1586 14.2868 14.1136 14.28 14.0626L13.9338 11.5855C13.8575 11.038 14.2291 10.5316 14.7641 10.4535C15.302 10.3784 15.794 10.7548 15.8703 11.3022L15.9691 12.0098C20.1658 8.97926 26.0184 9.37259 29.7712 13.2128C32.3297 15.8321 33.4281 19.5642 32.7063 23.1983ZM20.9238 17H21.9238C23.8698 17 24.9238 17.319 24.9238 19C24.9238 20.421 24.0548 21 21.9238 21H20.9238V17ZM17.9238 24C17.3718 24 16.9238 24.448 16.9238 25C16.9238 25.553 17.3718 26 17.9238 26H18.9238V27C18.9238 27.553 19.3718 28 19.9238 28C20.4758 28 20.9238 27.553 20.9238 27V26H22.9238C23.4758 26 23.9238 25.553 23.9238 25C23.9238 24.448 23.4758 24 22.9238 24H20.9238V23H21.9238C26.2748 23 26.9238 20.494 26.9238 19C26.9238 16.346 25.2418 15 21.9238 15H19.9238C19.3718 15 18.9238 15.448 18.9238 16V21H17.9238C17.3718 21 16.9238 21.448 16.9238 22C16.9238 22.553 17.3718 23 17.9238 23H18.9238V24H17.9238Z" fill="#088037"></path>
</svg>
