<svg width="52" height="52" fill="none" xmlns="http://www.w3.org/2000/svg"><g filter="url('#filter0_d_737_2751')"><rect x="8" y="7" width="36" height="36" rx="18" fill="url('#paint0_linear_737_2751')"/><g clip-path="url('#clip0_737_2751')" fill-rule="evenodd" clip-rule="evenodd" fill="#fff"><path d="M26 29.584c.31 0 .563.252.563.563v3.612h3.28a.563.563 0 0 1 0 1.125H21.99a.562.562 0 1 1 0-1.125h3.449v-3.612c0-.31.252-.563.562-.563Z"/><path d="m21.443 29.477 3.278-5.678-.974-.562-3.765 6.52a.562.562 0 0 0 .487.845H31.53a.563.563 0 0 0 .487-.844l-3.765-6.521-.974.562 3.278 5.678h-9.114Z"/><path d="M26 15.116c.201 0 .387.107.487.282l4.477 7.753a.562.562 0 0 1-.487.844h-8.954a.563.563 0 0 1-.487-.844l4.477-7.753a.562.562 0 0 1 .487-.282Zm-3.502 7.754h7.005L26 16.804l-3.502 6.066Z"/></g></g><defs><linearGradient id="paint0_linear_737_2751" x1="23.376" y1="43" x2="40.743" y2="35.867" gradientUnits="userSpaceOnUse"><stop stop-color="#44B88E"/><stop offset="1" stop-color="#39F17F"/></linearGradient><clipPath id="clip0_737_2751"><path fill="#fff" transform="translate(14 13)" d="M0 0h24v24H0z"/></clipPath><filter id="filter0_d_737_2751" x="0" y="0" width="52" height="52" filterUnits="userSpaceOnUse" color-interpolation-filters="sRGB"><feFlood flood-opacity="0" result="BackgroundImageFix"/><feColorMatrix in="SourceAlpha" values="0 0 0 0 0 0 0 0 0 0 0 0 0 0 0 0 0 0 127 0" result="hardAlpha"/><feOffset dy="1"/><feGaussianBlur stdDeviation="4"/><feComposite in2="hardAlpha" operator="out"/><feColorMatrix values="0 0 0 0 0.219608 0 0 0 0 1 0 0 0 0 0.65098 0 0 0 0.12 0"/><feBlend in2="BackgroundImageFix" result="effect1_dropShadow_737_2751"/><feBlend in="SourceGraphic" in2="effect1_dropShadow_737_2751" result="shape"/></filter></defs></svg>