<svg width="52" height="52" viewBox="0 0 52 52" fill="none" xmlns="http://www.w3.org/2000/svg">
<g filter="url('#filter0_d_737_2751')">
<rect x="8" y="7" width="36" height="36" rx="18" fill="url('#paint0_linear_737_2751')"></rect>
<g clip-path="url('#clip0_737_2751')">
<path fill-rule="evenodd" clip-rule="evenodd" d="M26.0002 29.5842C26.3109 29.5842 26.5627 29.8361 26.5627 30.1467V33.7588H29.8436C30.1543 33.7588 30.4061 34.0107 30.4061 34.3213C30.4061 34.632 30.1543 34.8838 29.8436 34.8838H21.9894C21.6787 34.8838 21.4269 34.632 21.4269 34.3213C21.4269 34.0107 21.6787 33.7588 21.9894 33.7588H25.4377V30.1467C25.4377 29.8361 25.6895 29.5842 26.0002 29.5842Z" fill="white"></path>
<path fill-rule="evenodd" clip-rule="evenodd" d="M21.4432 29.4766L24.7212 23.7991L23.7469 23.2366L19.9818 29.7579C19.8813 29.9319 19.8813 30.1463 19.9818 30.3204C20.0823 30.4944 20.268 30.6016 20.4689 30.6016H31.531C31.732 30.6016 31.9177 30.4944 32.0182 30.3204C32.1186 30.1463 32.1186 29.9319 32.0182 29.7579L28.2531 23.2366L27.2788 23.7991L30.5567 29.4766H21.4432Z" fill="white"></path>
<path fill-rule="evenodd" clip-rule="evenodd" d="M26.0002 15.1162C26.2011 15.1162 26.3868 15.2234 26.4873 15.3975L30.9641 23.1515C31.0646 23.3255 31.0646 23.5399 30.9641 23.714C30.8636 23.888 30.6779 23.9952 30.4769 23.9952H21.5234C21.3224 23.9952 21.1367 23.888 21.0362 23.714C20.9358 23.5399 20.9358 23.3255 21.0362 23.1515L25.513 15.3975C25.6135 15.2234 25.7992 15.1162 26.0002 15.1162ZM22.4977 22.8702H29.5027L26.0002 16.8037L22.4977 22.8702Z" fill="white"></path>
</g>
</g>
<defs>
<filter id="filter0_d_737_2751" x="0" y="0" width="52" height="52" filterUnits="userSpaceOnUse" color-interpolation-filters="sRGB">
<feFlood flood-opacity="0" result="BackgroundImageFix"></feFlood>
<feColorMatrix in="SourceAlpha" type="matrix" values="0 0 0 0 0 0 0 0 0 0 0 0 0 0 0 0 0 0 127 0" result="hardAlpha"></feColorMatrix>
<feOffset dy="1"></feOffset>
<feGaussianBlur stdDeviation="4"></feGaussianBlur>
<feComposite in2="hardAlpha" operator="out"></feComposite>
<feColorMatrix type="matrix" values="0 0 0 0 0.219608 0 0 0 0 1 0 0 0 0 0.65098 0 0 0 0.12 0"></feColorMatrix>
<feBlend mode="normal" in2="BackgroundImageFix" result="effect1_dropShadow_737_2751"></feBlend>
<feBlend mode="normal" in="SourceGraphic" in2="effect1_dropShadow_737_2751" result="shape"></feBlend>
</filter>
<linearGradient id="paint0_linear_737_2751" x1="23.3761" y1="43" x2="40.7426" y2="35.8673" gradientUnits="userSpaceOnUse">
<stop stop-color="#44B88E"></stop>
<stop offset="1" stop-color="#39F17F"></stop>
</linearGradient>
<clipPath id="clip0_737_2751">
<rect width="24" height="24" fill="white" transform="translate(14 13)"></rect>
</clipPath>
</defs>
</svg>
