<svg width="46" height="46" viewBox="0 0 46 46" fill="none" xmlns="http://www.w3.org/2000/svg">
<circle cx="23.1143" cy="22.9999" r="22.1386" fill="#F3F5F6"></circle>
<path fill-rule="evenodd" clip-rule="evenodd" d="M23.0047 8.86136C26.9233 8.87206 30.0685 12.0773 30.0483 16.0392C30.0286 19.9097 26.8319 23.0466 22.9199 23.0335C19.0477 23.0203 15.8721 19.8101 15.8951 15.9318C15.917 12.0111 19.0943 8.85065 23.0047 8.86136ZM30.9412 25.8175C30.0748 26.707 29.0317 27.3507 27.8734 27.7998C26.7785 28.2242 25.5786 28.4378 24.3907 28.5803C24.4386 28.6322 24.4797 28.6771 24.5163 28.7171L24.5163 28.7171C24.6175 28.8276 24.6848 28.9011 24.7669 28.9832C25.383 29.6026 26.0002 30.2208 26.6174 30.8389L26.6182 30.8397C27.6155 31.8386 28.6128 32.8375 29.6051 33.8412C30.1526 34.3952 30.2666 35.0818 29.9653 35.7252C29.6364 36.429 28.8984 36.8917 28.1743 36.8419C27.7158 36.8102 27.3581 36.5826 27.0407 36.2627C26.646 35.8656 26.2488 35.4708 25.8517 35.076L25.8517 35.076C25.0247 34.2537 24.1977 33.4316 23.3929 32.589C23.0451 32.226 22.8788 32.2951 22.5722 32.6104C21.3484 33.8708 20.1045 35.111 18.8536 36.3447C18.2917 36.8987 17.6232 36.9991 16.9712 36.6822C16.2785 36.3471 15.838 35.6396 15.8718 34.9279C15.8957 34.4479 16.1319 34.0799 16.4621 33.7514C17.8301 32.3862 19.1946 31.0173 20.5588 29.6487L21.2402 28.9651C21.3082 28.8971 21.3729 28.8264 21.4513 28.7409L21.4513 28.7408L21.4516 28.7405C21.4951 28.693 21.5427 28.641 21.5974 28.5823C19.427 28.3555 17.4697 27.8212 15.794 26.511C15.7544 26.4801 15.7147 26.4493 15.6749 26.4186C15.5052 26.2874 15.3353 26.1561 15.1819 26.008C14.448 25.3038 14.3743 24.4966 14.9543 23.6659C15.4511 22.9546 16.2842 22.7645 17.1507 23.1732C17.3186 23.2518 17.4784 23.3514 17.6315 23.4568C20.754 25.6026 25.0439 25.6615 28.1789 23.5527C28.4892 23.3156 28.8214 23.1205 29.2063 23.0221C29.9538 22.8295 30.6519 23.1049 31.0528 23.7594C31.5117 24.5073 31.5064 25.2367 30.9412 25.8175ZM19.6776 16.1448C19.6776 14.3233 21.1542 12.8466 22.9758 12.8466C24.7973 12.8466 26.2739 14.3233 26.2739 16.1448C26.2739 17.9663 24.7973 19.443 22.9758 19.443C21.1542 19.443 19.6776 17.9663 19.6776 16.1448Z" fill="#8C92A1"></path>
</svg>
