<svg width="46" height="46" fill="none" xmlns="http://www.w3.org/2000/svg"><circle cx="23.114" cy="23" r="22.139" fill="#F3F5F6"/><path fill-rule="evenodd" clip-rule="evenodd" d="M23.005 8.861c3.918.011 7.064 3.216 7.043 7.178-.02 3.87-3.216 7.008-7.128 6.994-3.872-.013-7.048-3.223-7.025-7.101.022-3.92 3.2-7.081 7.11-7.07Zm7.936 16.956c-.866.89-1.91 1.534-3.068 1.983-1.095.424-2.294.638-3.482.78l.125.137c.102.11.169.184.25.266l1.851 1.856h.001c.998 1 1.995 1.998 2.987 3.002.548.554.662 1.24.36 1.884-.329.704-1.067 1.167-1.79 1.117-.46-.032-.817-.26-1.134-.58-.395-.396-.792-.791-1.19-1.186-.826-.822-1.653-1.644-2.458-2.487-.348-.363-.514-.294-.82.021-1.225 1.26-2.468 2.501-3.72 3.735-.561.554-1.23.654-1.882.337-.692-.335-1.133-1.042-1.1-1.754.025-.48.26-.848.591-1.177 1.368-1.365 2.733-2.734 4.097-4.102l.681-.684c.068-.068.133-.139.211-.224l.146-.159c-2.17-.227-4.127-.76-5.803-2.071l-.12-.092c-.169-.132-.339-.263-.492-.411-.734-.704-.808-1.511-.228-2.342.497-.711 1.33-.901 2.197-.493a3.4 3.4 0 0 1 .48.284c3.123 2.146 7.413 2.204 10.548.096.31-.237.642-.433 1.027-.53.748-.194 1.446.082 1.847.736.459.748.453 1.478-.112 2.058Zm-11.263-9.672a3.298 3.298 0 1 1 6.596 0 3.298 3.298 0 0 1-6.596 0Z" fill="#8C92A1"/></svg>