<svg width="51" height="72" fill="none" xmlns="http://www.w3.org/2000/svg"><path fill-rule="evenodd" clip-rule="evenodd" d="M3.334 12.912C6.764 6.22 13.52 2.137 20.443 2.302 31.84 2.579 39.257 9.02 43.05 16.799c3.773 7.737 4.005 16.891.954 22.722l-.005.008-.004.008c-3.408 6.061-7.07 11.492-11.093 17.459-2.663 3.95-5.485 8.134-8.495 12.89l-.559.884-.525-.904c-6.79-11.675-13.43-23.384-18.527-33C1.208 30.103.378 23.819 1.413 18.498l1.921-5.586Zm9.404 15.767c1.864 6.866 7.445 10.643 12.429 10.27 4.157-.31 7.05-2.337 8.644-5.162 1.583-2.807 1.858-6.357.897-9.711-1.773-6.191-7.265-11.296-14.117-10.213-2.698.427-5.257 1.97-6.843 4.506-1.59 2.542-2.172 6.034-1.01 10.31Z" fill="#fff"/><path d="M43.876 39.894c6.294-11.923-.797-36.992-23.81-37.548-2.384-.059-4.756.395-6.978 1.286 3.275-2.41 7.205-3.72 11.174-3.627 23.013.555 29.885 25.932 23.81 37.547-5.853 10.41-12.138 18.383-19.999 30.804-1.798 1.17-2.59 1.57-4.192 2.528 6.235-9.967 14.887-21.89 19.999-30.986l-.005-.004Z" fill="#000"/><path d="M3.334 12.912C6.764 6.22 13.52 2.137 20.443 2.302 31.84 2.579 39.257 9.02 43.05 16.799c3.773 7.737 4.005 16.891.954 22.722l-.005.008-.004.008c-3.408 6.061-7.07 11.492-11.093 17.459-2.663 3.95-5.484 8.134-8.495 12.89l-.559.884-.525-.904c-6.79-11.675-13.43-23.384-18.527-33C1.208 30.103.378 23.819 1.413 18.498m4.503 17.784" stroke="#000"/><path d="M12.708 28.78c-2.164-7.966 1.686-13.032 6.455-14.456-2.915 2.419-4.605 6.725-3.006 12.616 1.886 6.946 7.492 10.66 12.37 10.294a12.594 12.594 0 0 0 2.836-.528c-1.584 1.305-3.675 2.173-6.284 2.368-4.88.366-10.484-3.348-12.371-10.294Z" fill="#000"/><path clip-rule="evenodd" d="M25.166 38.949c-4.983.373-10.564-3.404-12.429-10.27-1.161-4.276-.58-7.768 1.01-10.31 1.587-2.537 4.146-4.079 6.843-4.506 6.852-1.083 12.344 4.022 14.118 10.213.96 3.354.685 6.904-.898 9.711-1.593 2.825-4.487 4.852-8.644 5.162Z" stroke="#000"/></svg>