<svg width="434" height="293" fill="none" xmlns="http://www.w3.org/2000/svg"><path fill-rule="evenodd" clip-rule="evenodd" d="m234.441 71.615 5.213-8.07.84.542-5.213 8.07-.84-.542Zm56.022 2c-12.016 2.117-26.809 4.723-36.58 6.899l-.218-.976c9.797-2.182 24.619-4.793 36.634-6.91 2.47-.434 4.82-.848 6.985-1.234l.175.985c-2.169.386-4.524.8-6.996 1.236Zm-96.524 12.18c-3.41-.118-6.932-.217-8.902.037l-.128-.992c2.071-.267 5.692-.161 9.065-.045l.7.024c1.448.05 2.834.098 4.026.117 1.397.021 2.482 0 3.083-.094l.156.987c-.7.111-1.872.128-3.254.107-1.203-.019-2.6-.067-4.047-.118l-.699-.024Zm-13.705.875c-1.356.116-2.535.185-3.419.185h-17.354v-1h17.354c.841 0 1.987-.066 3.334-.181l.085.996ZM265.426 94c-4.36-.929-8.578-1.812-11.753-2.469l.202-.98c3.178.658 7.397 1.542 11.759 2.471l-.208.978ZM220.79 100.5c-3.019 4.124-6.386 9.04-8.565 12.308l-.832-.555c2.184-3.275 5.56-8.204 8.59-12.344 1.515-2.069 2.949-3.948 4.107-5.328.578-.688 1.096-1.261 1.525-1.674.214-.205.416-.38.599-.51.169-.12.379-.245.603-.277l.142.99h.006s-.052.018-.172.102c-.127.09-.289.228-.485.417-.392.376-.883.918-1.452 1.596-1.137 1.353-2.555 3.212-4.066 5.275Zm61.605-2.749c-2.23-.529-5.134-1.182-8.31-1.88l.214-.976c3.178.698 6.089 1.352 8.327 1.883 1.119.266 2.072.501 2.808.695.722.192 1.268.352 1.546.468l-.384.923c-.205-.085-.681-.229-1.418-.424-.724-.191-1.668-.424-2.783-.689ZM335.701 78.864l.975-.226 5.276 22.814c.26.741 1.55 2.391 4.792 1.911.523-.077 1-.014 1.419.192.416.204.739.53.987.919.487.764.72 1.83.814 2.955.189 2.265-.169 5.04-.551 6.898l-.017.083-.044.072c-1.484 2.492-4.326 9.083-3.819 15.419.28 3.497.379 7.894.479 12.295l.049 2.152c.122 5.111.284 10.02.765 13.387l-.99.142c-.491-3.437-.653-8.41-.775-13.506l-.049-2.156c-.1-4.405-.198-8.768-.476-12.234-.525-6.563 2.363-13.3 3.914-15.937.367-1.812.693-4.433.517-6.532-.089-1.073-.306-1.943-.66-2.501-.173-.271-.368-.452-.584-.558-.213-.104-.481-.153-.833-.101-3.726.552-5.489-1.39-5.894-2.604l-.007-.023-5.288-22.861Zm-209.166 45.559c.514-14.162.966-30.288 1.144-41.139l1 .017c-.178 10.859-.63 26.992-1.144 41.158-.514 14.146-1.091 26.381-1.523 29.404-.332 2.328-.454 4.624-.576 6.922a127.236 127.236 0 0 1-.266 4.154c-.314 3.66-.946 7.275-2.773 10.705-1.164 2.184-1.876 5.048-2.677 8.59l-.255 1.134c-.734 3.268-1.578 7.03-2.925 11.204-1.862 5.776-9.424 30.764-10.994 36.347l3.006.482 9.056 1.456a29668.05 29668.05 0 0 1 24.921 4.018c5.144.833 10.491.623 15.151-.353 4.671-.978 8.595-2.715 10.938-4.888l.276-.256.323.194c5.087 3.075 8.118 5.834 10.107 8.256 1.629 1.982 2.552 3.735 3.318 5.187.168.318.328.622.486.91.876 1.598 1.693 2.737 3.442 3.516 1.796.799 4.616 1.237 9.556 1.237 1.879 0 3.255.492 4.46 1.095.43.215.846.448 1.248.673l.443.248c.545.3 1.079.576 1.655.795 2.231.85 5.299.927 12.003-2.749l.251-.138.246.147c15.157 9.071 24.908 3.722 27.831.114l.257-.317.362.188c6.984 3.637 11.528 4.069 14.348 3.254 2.791-.806 3.987-2.862 4.251-4.488l.065-.402.406-.018c13.175-.579 19.623-2.929 22.887-4.853 1.604-.945 2.453-1.794 2.973-2.314l.021-.021c.129-.129.252-.252.362-.348.102-.089.243-.2.412-.258a.698.698 0 0 1 .643.092c.158.113.261.276.333.41.024.045.133.161.503.252.351.085.84.124 1.451.109 1.218-.028 2.818-.262 4.547-.631 3.463-.74 7.339-1.999 9.537-3.134.941-.485 1.514-1.491 1.88-2.772.322-1.128.459-2.377.582-3.497l.049-.437c.068-.599.14-1.163.251-1.608.055-.224.126-.44.223-.625.096-.183.239-.377.46-.495.5-.268 1.005.01 1.38.328.409.347.893.927 1.479 1.757.881 1.249 1.85 1.976 2.824 2.355.978.379 1.996.42 2.993.241 1.997-.358 3.862-1.595 4.974-2.646l11.24-14.065.252.01c1.008.04 2.259.229 3.569.427l.344.052c1.451.218 2.974.436 4.403.494 1.436.058 2.725-.049 3.724-.445.973-.386 1.668-1.042 1.976-2.134.519-1.84 2.302-2.899 4.418-3.552 2.142-.662 4.805-.965 7.369-1.169.844-.067 1.675-.124 2.477-.178 1.661-.113 3.195-.217 4.452-.391.932-.128 1.661-.289 2.149-.498.511-.218.589-.409.594-.512.002-.042-.023-.202-.154-.528a12.3 12.3 0 0 0-.56-1.154c-.499-.928-1.228-2.131-2.122-3.531-1.787-2.799-4.213-6.354-6.734-10.023l-1.265-1.84c-2.113-3.071-4.227-6.145-6.023-8.841-2.147-3.224-3.866-5.948-4.574-7.489l-.018-.039-.011-.042a302.075 302.075 0 0 1-1.326-5.198l.971-.239c.502 2.038.966 3.843 1.31 5.138.68 1.464 2.34 4.102 4.48 7.314 1.791 2.69 3.9 5.756 6.013 8.826l1.267 1.844c2.52 3.667 4.955 7.236 6.753 10.051.898 1.407 1.643 2.634 2.16 3.595.258.48.465.903.607 1.255.057.142.109.286.149.426h30.113v1h-30.154c-.202.43-.635.715-1.082.906-.618.264-1.456.439-2.406.57-1.292.178-2.885.286-4.568.401-.794.054-1.607.109-2.418.174-2.562.204-5.127.501-7.154 1.127-2.052.634-3.379 1.551-3.751 2.869-.404 1.433-1.35 2.308-2.569 2.791-1.194.474-2.649.575-4.133.515-1.491-.06-3.065-.286-4.511-.504l-.328-.049c-1.217-.184-2.32-.351-3.226-.407l-10.964 13.72-.025.024c-1.197 1.14-3.245 2.522-5.511 2.93-1.142.205-2.351.164-3.531-.294-1.183-.459-2.302-1.323-3.28-2.71-.576-.816-1.001-1.31-1.309-1.571a1.038 1.038 0 0 0-.275-.186.385.385 0 0 0-.032.055 1.841 1.841 0 0 0-.139.401c-.093.372-.159.874-.227 1.479l-.048.431c-.122 1.111-.268 2.45-.616 3.665-.392 1.373-1.072 2.711-2.383 3.387-2.305 1.19-6.275 2.473-9.786 3.223-1.757.375-3.426.623-4.733.653-.651.015-1.238-.022-1.711-.138-.412-.101-.833-.284-1.079-.638l-.047.045c-.052.05-.112.11-.183.181l-.019.019c-.543.543-1.461 1.462-3.175 2.471-3.421 2.016-9.952 4.36-22.958 4.972-.439 1.874-1.888 4.023-4.881 4.888-3.126.903-7.845.377-14.732-3.144-3.522 3.974-13.615 8.805-28.61-.052-6.641 3.598-9.987 3.661-12.589 2.671a13.797 13.797 0 0 1-1.782-.855c-.159-.087-.315-.175-.469-.261-.394-.221-.779-.437-1.186-.641-1.111-.555-2.332-.989-4.013-.989-4.96 0-7.962-.434-9.962-1.324-2.046-.91-2.997-2.277-3.913-3.948-.167-.305-.334-.62-.505-.946-.764-1.447-1.636-3.1-3.194-4.997-1.864-2.269-4.719-4.893-9.536-7.842-2.547 2.221-6.543 3.919-11.131 4.88-4.774 1-10.245 1.214-15.516.362-8.205-1.328-17.588-2.839-24.92-4.019l-9.056-1.455-3.517-.565H0v-1h104.535c1.463-5.248 9.169-30.715 11.054-36.559 1.331-4.128 2.166-7.846 2.9-11.116.086-.385.171-.764.256-1.136.795-3.517 1.532-6.517 2.769-8.839 1.734-3.255 2.35-6.712 2.66-10.32.113-1.32.185-2.674.258-4.046.125-2.337.253-4.726.59-7.087.423-2.956.999-15.116 1.513-29.298Zm184.95 107.423h.01-.01Zm121.77-20.297h-19.861v-1h19.861v1Zm-71.284 52.113h-62.17v-1h62.17v1ZM307.85 292.28h-84.034v-1h84.034v1Z" fill="#fff"/><path d="M128.677 80.772c1.369-3.765 8.15-12.675 21.496-18.218 13.347-5.544 12.577-10.866 10.523-12.833 1.455-1.027 4.98-2.772 7.444-1.54.598 1.454 1.437 5.082 0 7.956h4.876c.941-2.139 2.259-7.443 0-11.55 1.198-1.368 4.363-3.9 7.443-3.08v9.754c1.027 1.197 3.491 2.566 5.133-1.54-.427-2.225-1.026-6.981 0-8.213 1.284-1.54 20.533-6.16 25.153-3.08.442.093.683 1.456-1.884 6.16-2.568 4.703-2.305 7.525-1.852 8.348 18.069-.666 54.533-1.98 55.842-1.907v2.975l.287.025h2.804l2.636-2.454c9.484.454 30.051 2.526 36.45 7.18.485.88 1.927 2.8 3.818 3.455 6.16.393 19.85 3.888 25.328 14.724 5.478 10.837-23.126 24.92-37.663 30.427 19.035-7.238 31.026-16.807 31.026-26.188 0-14.09-26.606-23.8-64.399-27.144h-.287v-.025c-9.472-.83-19.643-1.26-30.27-1.26-53.2 0-99.354 15.173-99.354 32.825 0 11.033 17.694 20.51 44.205 26.507-45.648-8.912-51.337-23.464-48.755-31.304Z" fill="#fff"/><path fill-rule="evenodd" clip-rule="evenodd" d="M186.278 41.623c-.202.112-.283.184-.301.205-.159.19-.302.593-.381 1.232-.077.614-.086 1.362-.049 2.159.073 1.59.326 3.312.537 4.407l.028.144-.055.136c-.854 2.137-2.009 3.046-3.25 3.074-1.169.026-2.172-.747-2.727-1.394l-.12-.14V41.91c-1.255-.215-2.54.148-3.694.758a10.83 10.83 0 0 0-2.643 1.998c1.046 2.088 1.253 4.414 1.092 6.473-.169 2.166-.749 4.081-1.241 5.2l-.131.298h-6.012l.362-.723c.665-1.33.813-2.857.712-4.252-.093-1.278-.392-2.41-.657-3.112-1.036-.444-2.311-.343-3.565.033a11.892 11.892 0 0 0-2.726 1.236c.92 1.185 1.362 3.04.194 5.214-1.302 2.424-4.58 5.197-11.285 7.982-6.613 2.747-11.594 6.326-15.086 9.676-3.498 3.355-5.478 6.458-6.13 8.244-1.212 3.689-.536 9.08 6.141 14.704 3.826 3.223 9.612 6.509 18.106 9.563-3.054-1.285-5.819-2.64-8.26-4.059-7.767-4.515-12.409-9.772-12.409-15.574 0-4.645 3.033-9.032 8.241-12.975 5.219-3.95 12.707-7.523 21.829-10.532 12.184-4.019 27.33-7.048 43.981-8.617l-.059.002-.148-.27c-.301-.547-.47-1.584-.264-3.03.208-1.466.808-3.405 2.114-5.799 1.276-2.337 1.831-3.805 2.021-4.676.096-.438.09-.685.066-.8l-.041-.028c-.494-.33-1.222-.578-2.161-.738-.932-.16-2.036-.225-3.255-.213-2.438.024-5.289.356-8.049.835-2.758.478-5.41 1.1-7.448 1.696-1.02.298-1.877.587-2.514.846a7.34 7.34 0 0 0-.763.353Zm52.451 10.67c8.224.13 16.138.524 23.623 1.165V51.53c-.34.005-.85.016-1.521.034-1.156.03-2.758.078-4.7.14-3.884.123-9.129.301-14.898.502-.825.03-1.66.059-2.504.088Zm23.623 2.17v.066h.765c18.863 1.67 34.9 4.927 46.206 9.506 5.657 2.29 10.1 4.9 13.122 7.784 3.017 2.88 4.593 6.005 4.593 9.354 0 4.47-2.863 9.08-8.195 13.513-5.319 4.421-13.018 8.598-22.503 12.205l-.006.003.354.935c7.289-2.762 18.113-7.675 26.439-13.268 4.159-2.793 7.732-5.78 9.922-8.78 2.19-3.003 3.063-6.122 1.572-9.072-2.806-5.551-7.704-9.2-12.643-11.506-4.902-2.29-9.889-3.278-13.03-3.488-.821-.3-1.568-.873-2.18-1.498-.626-.64-1.081-1.303-1.302-1.703l-.053-.097-.09-.066c-1.673-1.216-4.227-2.238-7.218-3.097-3.002-.864-6.49-1.577-10.065-2.157-7.149-1.16-14.681-1.794-19.438-2.022l-.21-.01-2.646 2.464h-2.394v-2.973l-.472-.026c-.19-.01-.933.003-2.075.033-1.159.03-2.763.078-4.706.14-3.885.123-9.131.302-14.901.503-11.39.397-24.822.885-33.856 1.218-.113-.395-.192-1.099-.044-2.136.188-1.327.741-3.151 2.002-5.46 1.292-2.368 1.9-3.933 2.12-4.943.11-.5.133-.905.068-1.219-.058-.28-.217-.578-.528-.695-.653-.417-1.513-.686-2.485-.851-1.01-.172-2.178-.239-3.433-.227-2.511.025-5.419.366-8.209.85-2.792.484-5.482 1.113-7.559 1.72-1.037.304-1.93.604-2.61.88a8.279 8.279 0 0 0-.87.405c-.223.123-.442.268-.585.44-.355.425-.522 1.078-.606 1.748-.086.693-.093 1.504-.055 2.329.073 1.582.315 3.272.526 4.404-.775 1.857-1.647 2.297-2.29 2.311-.671.015-1.352-.414-1.824-.911v-9.946l-.371-.098c-1.71-.456-3.406.027-4.79.76-1.388.733-2.526 1.75-3.159 2.473l-.23.264.169.306c1.066 1.94 1.299 4.185 1.139 6.233-.145 1.861-.613 3.523-1.034 4.576h-3.783c.499-1.346.593-2.776.501-4.047-.108-1.502-.48-2.825-.8-3.6l-.071-.173-.167-.084c-1.4-.7-3.048-.533-4.467-.108a12.739 12.739 0 0 0-3.488 1.687l-.496.35.438.42c.876.839 1.525 2.42.419 4.477-1.136 2.115-4.147 4.774-10.788 7.533-6.733 2.797-11.817 6.445-15.394 9.877-3.567 3.422-5.661 6.653-6.38 8.632l-.003.007-.003.007c-1.367 4.151-.485 9.953 6.445 15.79 6.902 5.812 19.835 11.7 42.689 16.161l.207-.978c-13.232-2.993-24.228-6.847-31.903-11.309-7.707-4.48-11.912-9.479-11.912-14.71 0-4.181 2.735-8.31 7.844-12.177 5.098-3.859 12.473-7.39 21.539-10.38 18.128-5.98 42.912-9.767 69.47-9.767 10.444 0 20.444.415 29.771 1.217Zm55.868 42.003c.434-.335.855-.672 1.262-1.011 5.423-4.507 8.556-9.372 8.556-14.282 0-3.697-1.75-7.068-4.903-10.077-3.147-3.004-7.717-5.672-13.437-7.988-10.696-4.332-25.514-7.472-42.859-9.23l1.926-1.794c4.737.235 12.115.864 19.115 2 3.553.576 6.999 1.282 9.949 2.13 2.907.836 5.288 1.799 6.819 2.884a9.649 9.649 0 0 0 1.405 1.818c.688.703 1.585 1.404 2.63 1.766l.064.022.068.005c3.023.193 7.924 1.151 12.74 3.4 4.815 2.249 9.502 5.766 12.173 11.051 1.248 2.468.599 5.172-1.487 8.03-2.087 2.861-5.547 5.77-9.671 8.541a89.722 89.722 0 0 1-4.35 2.735Z" fill="#fff"/><path fill-rule="evenodd" clip-rule="evenodd" d="M319.508 93.696c4.65-4.23 7.029-8.514 7.029-12.523 0-3.97-2.338-7.69-6.949-11.084-4.611-3.393-11.365-6.354-19.856-8.789-16.967-4.865-40.605-7.555-67.152-7.555-26.516 0-51.246 3.782-69.313 9.742-9.039 2.981-16.357 6.49-21.394 10.303-5.06 3.83-7.646 7.83-7.646 11.78 0 3.949 2.586 7.948 7.646 11.778 5.037 3.813 12.355 7.322 21.394 10.303 18.067 5.96 42.797 9.743 69.313 9.743 26.487 0 50.093-4.873 67.045-11.915 8.479-3.522 15.25-7.568 19.883-11.783Zm-86.928 24.698c53.199 0 94.957-19.569 94.957-37.221 0-17.653-41.758-28.428-94.957-28.428-53.199 0-99.353 15.172-99.353 32.824 0 17.653 46.154 32.825 99.353 32.825Z" fill="#fff"/><path fill-rule="evenodd" clip-rule="evenodd" d="M217.028 81.975c-.765.603-1.087 1.187-1.087 1.716 0 .53.322 1.113 1.087 1.716.76.6 1.891 1.16 3.332 1.64 2.878.96 6.886 1.562 11.335 1.562 4.45 0 8.457-.602 11.335-1.561 1.442-.48 2.572-1.042 3.332-1.64.766-.604 1.087-1.188 1.087-1.717 0-.529-.321-1.113-1.087-1.716-.76-.599-1.89-1.16-3.332-1.64-2.878-.96-6.885-1.562-11.335-1.562-4.449 0-8.457.602-11.335 1.561-1.441.481-2.572 1.042-3.332 1.641Zm3.016-2.59c3.005-1 7.124-1.612 11.651-1.612s8.647.611 11.652 1.613c1.499.5 2.749 1.106 3.634 1.803.88.694 1.468 1.535 1.468 2.502 0 .967-.588 1.809-1.468 2.502-.885.697-2.135 1.304-3.634 1.804-3.005 1.001-7.125 1.612-11.652 1.612-4.527 0-8.646-.61-11.651-1.612-1.5-.5-2.75-1.107-3.635-1.804-.879-.693-1.468-1.535-1.468-2.502 0-.967.589-1.808 1.468-2.502.885-.697 2.135-1.303 3.635-1.803ZM228.247 61.686c-11.82.48-23.448 2.128-30.538 3.5l-.19-.981c7.132-1.38 18.81-3.036 30.687-3.518 11.856-.482 23.998.199 32.003 3.547l-.386.923c-7.786-3.257-19.734-3.953-31.576-3.471Zm-41.475 15.83c-2.581 1.97-3.903 4.064-3.903 6.175 0 2.365 1.66 4.707 4.872 6.87 3.195 2.152 7.824 4.052 13.506 5.55l-.255.967c-5.739-1.513-10.486-3.449-13.81-5.688-3.308-2.228-5.313-4.832-5.313-7.699 0-2.562 1.604-4.915 4.297-6.97 2.7-2.062 6.571-3.886 11.296-5.393l.304.953c-4.668 1.488-8.42 3.27-10.994 5.234ZM280.46 84.5c.043-.268.065-.538.065-.81h1c0 .325-.026.648-.077.968-.377 2.359-2.107 4.517-4.78 6.416-2.681 1.905-6.378 3.598-10.83 5.01-8.907 2.823-20.928 4.549-34.141 4.549v-1c13.136 0 25.051-1.717 33.839-4.503 4.396-1.394 7.986-3.048 10.553-4.871 2.576-1.83 4.056-3.784 4.371-5.759ZM301.17 69.291c-7.537-4.1-18.301-7.495-31.15-9.78l.176-.985c12.907 2.296 23.785 5.716 31.452 9.887 7.628 4.15 12.244 9.143 12.244 14.645 0 2.977-1.356 5.807-3.791 8.422-2.432 2.613-5.962 5.037-10.38 7.223l-.444-.896c4.355-2.155 7.771-4.515 10.092-7.008 2.319-2.491 3.523-5.09 3.523-7.74 0-4.91-4.147-9.646-11.722-13.767ZM157.093 72.57c-4.311 3.292-6.593 6.844-6.593 10.49 0 4.08 2.862 8.045 8.213 11.648 5.334 3.594 13.039 6.752 22.469 9.238l-.255.967c-9.487-2.501-17.31-5.696-22.773-9.375-5.447-3.669-8.654-7.895-8.654-12.479 0-4.096 2.564-7.907 6.987-11.284 4.43-3.382 10.802-6.39 18.61-8.878l.304.952c-7.751 2.47-14.003 5.435-18.308 8.72Z" fill="#fff"/><path d="M165.955 116.151c2.973-.637 10.003-1.147 14.335 1.911-.955 9.77-2.93 32.176-3.185 43.644-.319 14.336 0 65.944 0 69.766-1.062-18.583-3.313-59.89-3.823-76.456-.07-2.271-.125-4.078-.166-5.488-.746-12.825-2.953-33.377-7.161-33.377Z" fill="#fff"/><path fill-rule="evenodd" clip-rule="evenodd" d="M167.517 116.392c.11.111.214.23.315.357.51.645.966 1.552 1.379 2.636.827 2.172 1.528 5.18 2.115 8.56.909 5.232 1.557 11.42 1.977 16.926a.421.421 0 0 1 .105.079c.025.038.056.1.064.123.005.015.013.039.015.049l.009.043c.004.023.005.046.006.053.006.073.016.29.028.599.052 1.261.159 4.295.251 6.952l-.068.003.068 2.229c.37 12.018 1.657 37.07 2.741 57.011-.066-17.36-.119-41.264.082-50.317.253-11.376 2.194-33.47 3.159-43.386-2.029-1.338-4.655-1.923-7.183-2.089a26.247 26.247 0 0 0-5.063.172Zm5.098 33.158.167 5.482c.51 16.573 2.761 57.888 3.823 76.469l.999-.029c0-.675-.01-2.833-.024-6.009-.068-14.848-.238-51.942.024-63.746.254-11.446 2.227-33.834 3.183-43.606l.029-.289-.238-.168c-2.274-1.605-5.22-2.254-7.933-2.432-2.72-.178-5.267.113-6.795.44l.104.989c.304 0 .671.184 1.094.718.418.53.831 1.328 1.228 2.372.793 2.081 1.481 5.014 2.064 8.375 1.166 6.712 1.903 15.031 2.275 21.434Zm.885-4.283v-.006.006Z" fill="#fff"/><path d="M140.93 104.694c-.364-.474-.273-.915-.046-1.199.016.388.031.788.046 1.199.492.64 1.814 1.341 4.752 1.8 6.397.999-2.199.2-2.399 6.797-.2 6.597.8 50.378-3.998 53.377-3.838 2.399-11.328 27.655-14.594 39.983 1.988-9.207 7.171-30.694 11.995-42.982 4.7-11.968 4.807-43.539 4.244-58.975ZM217.976 121.51c0-3.944-3.287-3.287-4.93-2.465-1.096 8.308-2.63 26.24 0 31.499 3.287 6.574 0 33.69 0 39.99 0 6.3-5.478 20.543-6.574 37.251-.876 13.367 5.899 22.429 10.099 25.534-.913-1.279-1.772-5.155-3.525-12.386-2.191-9.039 2.191-36.156 2.191-42.456 0-6.3 5.752-25.473 5.204-34.808-.547-9.334-4.93-23.534-5.204-28.738-.274-5.204 2.739-8.491 2.739-13.421ZM246.091 119.045c2.838-.691 8.255.404 7.223 10.31-.856 8.223-3.76 17.469-5.615 23.358-.836 3.992-1.608 6.425-1.608 5.794 0-.693.67-2.814 1.608-5.794 1.897-9.059 4.122-26.147-1.608-33.668ZM253.314 174.254c0-11.609 4.105-25.797 6.157-31.441-2.928 7.876-9.247 24.901-11.1 29.995-2.315 6.368-3.28 20.839-4.631 25.669-1.35 4.83 1.351 28.359 2.351 36.849.8 6.792-.589 14.641-1.255 17.352 13.09 6.628 17.029 2.944 18.565-.728-2.317-10.178-7.58-31.925-10.087-37.488-3.134-6.953 0-25.697 0-40.208Z" fill="#fff"/><path fill-rule="evenodd" clip-rule="evenodd" d="m141.329 102.138.055 1.337c.014.333.027.675.04 1.025.199.205.553.451 1.156.699.711.293 1.735.575 3.18.801.798.125 1.38.224 1.777.315.196.045.368.093.505.149.069.028.144.063.213.111a.677.677 0 0 1 .22.238.586.586 0 0 1 .052.428.672.672 0 0 1-.153.276 1.433 1.433 0 0 1-.327.255 10.64 10.64 0 0 1-.499.273c-.115.061-.235.124-.351.187-1.334.728-3.322 2.053-3.413 5.074-.034 1.116-.034 3.303-.033 6.191.001 1.357.001 2.869-.002 4.497-.009 5.08-.053 11.271-.24 17.35-.188 6.077-.52 12.056-1.107 16.709-.293 2.325-.652 4.336-1.095 5.87-.221.766-.468 1.429-.746 1.957-.273.52-.602.957-1.011 1.212-.373.234-.859.801-1.433 1.739-.563.918-1.173 2.128-1.815 3.567-1.284 2.877-2.676 6.627-4.055 10.699-2.755 8.14-5.441 17.525-7.072 23.682l-.972-.233c1.988-9.208 7.178-30.731 12.018-43.059 2.316-5.897 3.517-16.701 4.062-28.029.539-11.229.43-22.889.154-30.598a1.495 1.495 0 0 1-.251-.851c.009-.329.137-.612.308-.826l.835-1.045Zm.139 3.632c.253 7.719.333 18.923-.187 29.736-.543 11.31-1.745 22.275-4.129 28.346-2.369 6.033-4.827 14.301-6.949 22.237.363-1.119.73-2.227 1.097-3.313 1.382-4.083 2.786-7.867 4.088-10.786.651-1.458 1.282-2.712 1.876-3.682.583-.951 1.17-1.697 1.756-2.064.191-.119.417-.376.656-.83.235-.446.459-1.038.67-1.768.422-1.461.773-3.413 1.064-5.718.581-4.605.912-10.546 1.099-16.614.187-6.066.231-12.245.24-17.322.003-1.612.003-3.114.002-4.467-.001-2.902-.001-5.118.033-6.249.108-3.576 2.518-5.15 3.934-5.922l.253-.136c-.338-.065-.785-.14-1.365-.23-1.493-.233-2.6-.532-3.407-.864a6.09 6.09 0 0 1-.731-.354Zm72.039 13.611c-.539 4.152-1.171 10.547-1.358 16.572-.095 3.08-.074 6.054.132 8.578.209 2.543.601 4.566 1.213 5.789.444.888.762 2.089.99 3.491.229 1.409.371 3.053.449 4.847.155 3.588.051 7.809-.155 12.008-.198 4.055-.493 8.101-.744 11.551l-.027.372c-.257 3.541-.461 6.393-.461 7.945 0 1.633-.353 3.749-.884 6.233-.36 1.684-.807 3.559-1.291 5.59-.231.971-.471 1.976-.714 3.013-1.505 6.431-3.14 14.136-3.685 22.448-.756 11.53 4.264 19.787 8.261 23.691a40.788 40.788 0 0 1-.592-2.021c-.428-1.588-.92-3.628-1.529-6.155-.174-.721-.357-1.482-.552-2.283-.564-2.329-.698-5.776-.596-9.692.104-3.928.447-8.375.858-12.727.303-3.197.642-6.348.949-9.209.112-1.034.219-2.03.319-2.977.378-3.58.648-6.425.648-7.968 0-1.628.368-4.051.898-6.876.363-1.931.805-4.074 1.266-6.309.216-1.044.436-2.108.653-3.18 1.373-6.766 2.657-13.824 2.388-18.413-.271-4.621-1.494-10.465-2.694-15.839l-.484-2.155c-.426-1.891-.831-3.688-1.165-5.299-.458-2.208-.791-4.105-.862-5.448-.142-2.708.574-4.911 1.294-7.003l.099-.288c.69-1.998 1.346-3.899 1.346-6.157 0-.921-.193-1.509-.45-1.879-.251-.362-.596-.562-1.007-.653-.778-.171-1.756.067-2.513.403Zm4.341-.321c.41.59.629 1.399.629 2.45 0 2.431-.707 4.476-1.389 6.448l-.111.323c-.718 2.085-1.371 4.127-1.24 6.624.066 1.259.384 3.088.842 5.298.332 1.602.734 3.386 1.159 5.273.16.709.323 1.432.487 2.167 1.197 5.361 2.439 11.283 2.716 15.997.278 4.746-1.04 11.942-2.406 18.671-.219 1.08-.44 2.149-.656 3.195-.46 2.229-.899 4.357-1.26 6.28-.531 2.833-.881 5.169-.881 6.691 0 1.608-.278 4.514-.654 8.073-.1.95-.207 1.949-.319 2.984-.307 2.859-.646 6.001-.947 9.191-.41 4.344-.752 8.765-.854 12.66-.102 3.908.037 7.24.568 9.43.196.806.38 1.57.554 2.293.609 2.524 1.096 4.546 1.521 6.12a32.7 32.7 0 0 0 .745 2.464c.232.644.439 1.073.626 1.336l-.704.693c-4.324-3.197-11.189-12.418-10.3-25.969.55-8.396 2.202-16.167 3.71-22.61.245-1.048.486-2.059.718-3.032.482-2.023.925-3.88 1.282-5.552.531-2.481.862-4.507.862-6.024 0-1.598.208-4.498.464-8.018l.027-.368c.251-3.452.545-7.488.743-11.531.205-4.189.307-8.373.153-11.916-.076-1.771-.216-3.373-.436-4.73-.222-1.363-.52-2.448-.898-3.204-.703-1.406-1.105-3.596-1.314-6.154-.211-2.577-.231-5.591-.135-8.691.192-6.199.851-12.776 1.401-16.943l.034-.263.238-.118c.862-.431 2.22-.858 3.412-.596.617.135 1.196.459 1.613 1.058Zm29.111.344c2.597 3.933 3.37 9.895 3.297 15.904-.04 3.282-.333 6.612-.738 9.691 1.398-4.909 2.759-10.511 3.299-15.696.508-4.875-.586-7.432-1.998-8.706-1.168-1.053-2.643-1.311-3.86-1.193Zm1.225 33.436c1.852-5.882 4.767-15.163 5.628-23.433.524-5.032-.575-7.975-2.323-9.552-1.739-1.57-3.991-1.667-5.516-1.296l-.743.181.463.608c2.756 3.616 3.64 9.616 3.563 15.948-.077 6.29-1.097 12.78-2.041 17.291l-.02.063c-.457 1.45-.851 2.702-1.132 3.679-.144.499-.26.933-.34 1.289-.078.346-.132.656-.132.889 0 .043.001.149.04.256a.514.514 0 0 0 .756.267.577.577 0 0 0 .154-.14.936.936 0 0 0 .062-.094c.03-.053.057-.113.082-.171.098-.232.228-.626.377-1.142.301-1.039.704-2.65 1.122-4.643Zm7.104 2.677a4173.397 4173.397 0 0 0-6.446 17.462c-1.136 3.124-1.951 8.277-2.652 13.309-.126.905-.249 1.805-.369 2.689-.542 3.987-1.036 7.623-1.599 9.635-.153.547-.257 1.397-.31 2.511a55.691 55.691 0 0 0-.015 3.942c.079 3.004.32 6.653.636 10.422.631 7.538 1.555 15.536 2.055 19.78.774 6.576-.475 14.102-1.174 17.142 6.311 3.145 10.342 3.786 12.942 3.277 2.521-.495 3.784-2.094 4.522-3.784a762.873 762.873 0 0 0-4.933-20.301c-1.922-7.42-3.854-14.199-5.086-16.933-.824-1.827-1.218-4.38-1.366-7.356-.148-2.988-.049-6.457.147-10.146.125-2.34.288-4.767.453-7.222.356-5.307.722-10.74.722-15.69 0-6.076 1.114-12.843 2.473-18.737Zm-7.386 17.12c1.853-5.096 8.173-22.123 11.101-29.998l.939.345c-2.045 5.622-6.127 19.747-6.127 31.27 0 4.984-.369 10.477-.727 15.802a513.826 513.826 0 0 0-.449 7.163c-.196 3.68-.293 7.108-.147 10.043.146 2.947.535 5.345 1.279 6.995 1.275 2.829 3.228 9.704 5.142 17.093a759.505 759.505 0 0 1 4.976 20.489l.036.156-.062.148c-.807 1.929-2.283 3.93-5.315 4.524-2.979.584-7.361-.213-13.938-3.543l-.354-.179.095-.386c.66-2.685 2.033-10.467 1.244-17.175-.5-4.245-1.426-12.257-2.059-19.813-.316-3.778-.559-7.448-.638-10.479-.04-1.516-.039-2.878.016-4.017.053-1.13.161-2.072.345-2.732.542-1.939 1.024-5.478 1.566-9.463.121-.892.246-1.806.374-2.73.698-5.003 1.523-10.269 2.703-13.513Z" fill="#fff"/><path d="M303.77 109.841c-5.122-3.292-10.365 1.372-12.347 4.116-.479 1.334-.786 5.193 1.81 9.952 3.245 5.949 4.056 22.444 4.056 32.99 0 10.546-7.842 20.822-7.301 35.964.54 15.143 3.245 27.852 5.678 40.021 1.947 9.734 8.563 8.923 11.628 7.301-21.633-24.878-10.005-62.464-8.112-74.903 1.892-12.439 4.588-30.286 1.352-38.398-2.59-6.49 1.078-14.066 3.236-17.043Z" fill="#fff"/><path fill-rule="evenodd" clip-rule="evenodd" d="M291.871 114.191c-.411 1.246-.693 4.907 1.801 9.479.846 1.552 1.517 3.756 2.053 6.319.537 2.571.945 5.539 1.25 8.643.611 6.207.814 12.984.814 18.267 0 4.751-1.563 9.446-3.224 14.437-.217.654-.437 1.312-.654 1.977-1.89 5.769-3.691 12.053-3.424 19.533.509 14.23 2.932 26.303 5.249 37.84l.421 2.1c.95 4.754 3.007 6.802 5.071 7.536 1.848.657 3.822.308 5.261-.307-10.571-12.49-13.009-28.025-12.573-41.962.325-10.399 2.258-19.989 3.625-26.769.487-2.411.901-4.467 1.146-6.077.947-6.223 2.091-13.775 2.595-20.782.507-7.035.358-13.418-1.213-17.356-1.35-3.383-1.059-7.021-.179-10.159.8-2.852 2.099-5.335 3.162-6.914-2.223-1.218-4.451-.891-6.41.087-2.076 1.036-3.804 2.788-4.771 4.108Zm4.325-5.003c2.307-1.151 5.094-1.535 7.844.233l.445.286-.31.428c-1.047 1.445-2.476 4.03-3.322 7.045-.846 3.017-1.094 6.412.145 9.519 1.665 4.174 1.787 10.771 1.282 17.797-.508 7.054-1.658 14.645-2.604 20.861-.254 1.671-.678 3.771-1.171 6.218-1.366 6.775-3.268 16.205-3.59 26.509-.437 14 2.057 29.469 12.756 41.773l.413.475-.556.295c-1.61.852-4.18 1.511-6.635.637-2.496-.888-4.721-3.302-5.717-8.282l-.423-2.112c-2.315-11.529-4.754-23.675-5.265-37.989-.274-7.663 1.576-14.088 3.472-19.879.22-.67.439-1.329.656-1.981 1.667-5.016 3.173-9.544 3.173-14.122 0-5.263-.203-12.005-.809-18.17-.303-3.082-.706-6.012-1.234-8.536-.529-2.532-1.176-4.622-1.952-6.044-2.653-4.864-2.376-8.871-1.842-10.361l.024-.066.041-.058c1.025-1.418 2.889-3.333 5.179-4.476ZM337.326 107.492c-1.318 1.77-2.408 3.82-3.004 5.161l-.914-.406c.619-1.392 1.744-3.51 3.116-5.353.687-.921 1.445-1.788 2.244-2.462.794-.67 1.662-1.178 2.567-1.329l.165.986c-.657.11-1.362.496-2.087 1.108-.721.608-1.427 1.41-2.087 2.295Z" fill="#fff"/><path d="M336.187 219.51c-5.686-1.003-14.311-29.377-17.376-44.008-2.369-2.353-7.107-5.646-7.107 0 0 7.057.525 59.266 9.872 59.266 6.124 0 13.496-10.103 14.611-15.258Z" fill="#fff"/><path fill-rule="evenodd" clip-rule="evenodd" d="M271.129 137.521c-.914-6.879-2.459-14.07-3.602-18.587l.969-.246c1.151 4.545 2.704 11.775 3.625 18.702.46 3.462.764 6.86.778 9.814.015 2.938-.256 5.498-.985 7.247l-.923-.385c.648-1.555.923-3.945.908-6.857-.014-2.896-.312-6.248-.77-9.688Zm55.959 33.497c-2.237-10.927-2.301-21.852-1.67-28.587l.996.094c-.623 6.651-.561 17.475 1.654 28.292 2.217 10.83 6.574 21.566 14.471 28.141l-.64.769c-8.155-6.791-12.576-17.794-14.811-28.709Zm-172.703 29.73c2.45-12.746 3.765-26.489 2.669-34.715l.991-.132c1.119 8.392-.224 22.266-2.678 35.036-1.229 6.393-2.741 12.53-4.372 17.59-1.624 5.038-3.387 9.074-5.145 11.209l-.772-.636c1.626-1.974 3.343-5.846 4.965-10.88 1.616-5.011 3.118-11.107 4.342-17.472Zm162.604-27.44c.804.57 1.565 1.235 2.173 1.839l.106.106.031.146c1.528 7.294 4.445 18.023 7.687 27.048 1.622 4.514 3.318 8.584 4.956 11.581.82 1.499 1.615 2.712 2.367 3.574.766.877 1.426 1.321 1.964 1.415l.511.091-.109.507c-.582 2.691-2.76 6.58-5.538 9.784-1.395 1.61-2.959 3.068-4.578 4.128-1.614 1.057-3.319 1.74-4.984 1.74-1.429 0-2.591-1-3.53-2.49-.948-1.503-1.751-3.626-2.438-6.146-1.375-5.048-2.32-11.829-2.971-18.804-1.301-13.957-1.433-28.792-1.433-32.325 0-1.453.3-2.485.937-3.079.664-.618 1.544-.63 2.362-.402.821.228 1.69.721 2.487 1.287Zm-4.167-.153c-.326.303-.619.977-.619 2.347 0 3.523.132 18.321 1.429 32.232.649 6.96 1.588 13.672 2.94 18.634.677 2.485 1.449 4.496 2.318 5.876.879 1.393 1.778 2.023 2.685 2.023 1.398 0 2.911-.578 4.436-1.577 1.521-.995 3.017-2.385 4.37-3.946 2.557-2.949 4.536-6.434 5.205-8.889-.701-.277-1.38-.851-2.03-1.595-.82-.939-1.655-2.222-2.491-3.753-1.674-3.062-3.392-7.188-5.02-11.722-3.237-9.01-6.148-19.7-7.694-27.033a16.812 16.812 0 0 0-1.94-1.629c-.757-.537-1.517-.955-2.177-1.139-.662-.184-1.114-.107-1.412.171Zm-121.172 48.16c-.429-13.592-.252-28.859.044-38.771l1 .03c-.296 9.898-.473 25.144-.045 38.71.214 6.784.58 13.138 1.156 18.19.288 2.527.628 4.718 1.025 6.47.401 1.769.85 3.034 1.328 3.752l-.832.554c-.586-.879-1.066-2.299-1.471-4.084-.409-1.802-.753-4.033-1.044-6.578-.58-5.092-.947-11.477-1.161-18.273Zm77.902-.061c-.656-8.037.314-16.586 1.411-22.01l.98.198c-1.083 5.359-2.04 13.811-1.394 21.731.323 3.959 1.045 7.764 2.339 10.976 1.293 3.212 3.145 5.799 5.71 7.378l-.524.851c-2.804-1.725-4.77-4.518-6.114-7.855-1.344-3.337-2.08-7.25-2.408-11.269Z" fill="#fff"/><path d="M377.665 49.02s8.455 27.505-4.547 36.82c-5.734 4.11-18.003 8.682-18.003 8.682 7.747-1.35 13.796-3.545 17.059-1.204 4.078 2.926 8.349 7.914 11.46 8.826-5.313 3.098-16.832 6.957-24.115-3.675-2.153-3.143-2.869-2.07-4.404-3.947 0 0-10.101-16.108.898-28.73 9.836-11.29 21.652-16.773 21.652-16.773ZM137.267 3.67s-20.027 27.194-9.388 42.056c4.692 6.556 16.379 15.948 16.379 15.948-7.98-4.242-13.765-8.808-18.262-7.4-5.622 1.761-12.261 5.717-16.034 5.61 4.625 5.295 15.767 13.637 27.919 4.556 3.592-2.685 3.958-1.25 6.377-2.766 0 0 17.385-14.09 10.237-31.871-6.393-15.902-17.228-26.133-17.228-26.133Z" fill="#38FFA6"/><path fill-rule="evenodd" clip-rule="evenodd" d="m145.348 64.542.156.421.947-.318a4.23 4.23 0 0 0-.174-.477c-2.935-8.09-7.61-28.177-3.975-47.357l-.983-.186c-3.301 17.42.164 35.536 3.059 44.996-1.701-1.555-4.498-3.007-8.754-3.305-4.203-.295-6.978.584-9.4 1.35l-.505.16c-2.513.786-4.706 1.347-8.018.285l-.305.952c3.607 1.157 6.042.524 8.622-.284.166-.051.332-.104.499-.157 2.408-.761 5.027-1.59 9.037-1.309 6.334.444 9.051 3.536 9.794 5.229Z" fill="#fff"/><path fill-rule="evenodd" clip-rule="evenodd" d="M100.72 228.635c-13.006-3.47-20.009-20.972-33.626-20.897-10.283 0-10.56 17.578-30.903 17.049-2.28-.075-7.726-3.319-10.06-3.243-3.891.15-4.336 3.394-6.392 4.224-2.224.981-11.728 1.434-11.228 2.942l92.209-.075ZM162.255 248.005c-16.996-3.204-26.147-19.364-43.941-19.294-13.437 0-15.14 19.782-41.722 19.294 15.114.277 54.332.018 85.663 0Z" fill="#38FFA6"/><path fill-rule="evenodd" clip-rule="evenodd" d="M431.848 234.113c-7.941-1.491-12.217-9.01-20.532-8.978-6.278 0-6.448 7.552-18.869 7.325 7.063.129 24.762 1.662 39.401 1.653Z" fill="#fff"/></svg>