<svg width="434" height="293" viewBox="0 0 434 293" fill="none" xmlns="http://www.w3.org/2000/svg">
<path fill-rule="evenodd" clip-rule="evenodd" d="M234.441 71.6154L239.654 63.5442L240.494 64.0867L235.281 72.1579L234.441 71.6154ZM290.463 73.6152C278.447 75.7321 263.654 78.3379 253.883 80.5137L253.665 79.5376C263.462 77.3563 278.284 74.7453 290.299 72.6286C292.769 72.1937 295.119 71.7796 297.284 71.3944L297.459 72.3789C295.29 72.765 292.935 73.1798 290.463 73.6152ZM193.939 85.7941C190.529 85.677 187.007 85.5776 185.037 85.8315L184.909 84.8397C186.98 84.5728 190.601 84.6789 193.974 84.7947C194.209 84.8028 194.442 84.8109 194.674 84.819C196.122 84.8693 197.508 84.9174 198.7 84.9358C200.097 84.9574 201.182 84.9367 201.783 84.8417L201.939 85.8295C201.239 85.9401 200.067 85.957 198.685 85.9357C197.482 85.9172 196.085 85.8686 194.638 85.8183C194.406 85.8103 194.173 85.8021 193.939 85.7941ZM180.234 86.6703C178.878 86.7861 177.699 86.8553 176.815 86.8553H159.461V85.8553H176.815C177.656 85.8553 178.802 85.7889 180.149 85.6739L180.234 86.6703ZM265.426 94.0003C261.066 93.0711 256.848 92.1882 253.673 91.5311L253.875 90.5519C257.053 91.2093 261.272 92.0927 265.634 93.0222L265.426 94.0003ZM220.79 100.499C217.771 104.623 214.404 109.539 212.225 112.807L211.393 112.252C213.577 108.977 216.953 104.048 219.983 99.9081C221.498 97.839 222.932 95.9597 224.09 94.5804C224.668 93.8919 225.186 93.3185 225.615 92.9063C225.829 92.7007 226.031 92.5262 226.214 92.396C226.383 92.2765 226.593 92.1513 226.817 92.1194L226.959 93.1093C226.963 93.1088 226.965 93.1084 226.965 93.1086C226.965 93.1098 226.913 93.1266 226.793 93.2113C226.666 93.3018 226.504 93.4394 226.308 93.6278C225.916 94.0035 225.425 94.5455 224.856 95.2235C223.719 96.5772 222.301 98.4355 220.79 100.499ZM282.395 97.7504C280.165 97.2213 277.261 96.5679 274.085 95.8707L274.299 94.8939C277.477 95.5916 280.388 96.2464 282.626 96.7775C283.745 97.0429 284.698 97.278 285.434 97.4725C286.156 97.6637 286.702 97.8237 286.98 97.9398L286.596 98.8629C286.391 98.7777 285.915 98.6341 285.178 98.4393C284.454 98.248 283.51 98.0151 282.395 97.7504Z" fill="white"></path>
<path fill-rule="evenodd" clip-rule="evenodd" d="M335.701 78.8638L336.676 78.6384L341.952 101.452C342.212 102.193 343.502 103.843 346.744 103.363C347.267 103.286 347.744 103.349 348.163 103.555C348.579 103.759 348.902 104.085 349.15 104.474C349.637 105.238 349.87 106.304 349.964 107.429C350.153 109.694 349.795 112.469 349.413 114.327L349.396 114.41L349.352 114.482C347.868 116.974 345.026 123.565 345.533 129.901C345.813 133.398 345.912 137.795 346.012 142.196C346.028 142.914 346.044 143.633 346.061 144.348C346.183 149.459 346.345 154.368 346.826 157.735L345.836 157.877C345.345 154.44 345.183 149.467 345.061 144.371C345.044 143.654 345.028 142.934 345.012 142.215C344.912 137.81 344.814 133.447 344.536 129.981C344.011 123.418 346.899 116.681 348.45 114.044C348.817 112.232 349.143 109.611 348.967 107.512C348.878 106.439 348.661 105.569 348.307 105.011C348.134 104.74 347.939 104.559 347.723 104.453C347.51 104.349 347.242 104.3 346.89 104.352C343.164 104.904 341.401 102.962 340.996 101.748L340.989 101.725L335.701 78.8638ZM126.535 124.423C127.049 110.261 127.501 94.1347 127.679 83.2844L128.679 83.3008C128.501 94.1596 128.049 110.293 127.535 124.459C127.021 138.605 126.444 150.84 126.012 153.863C125.68 156.191 125.558 158.487 125.436 160.785C125.363 162.167 125.289 163.549 125.17 164.939C124.856 168.599 124.224 172.214 122.397 175.644C121.233 177.828 120.521 180.692 119.72 184.234C119.636 184.605 119.551 184.983 119.465 185.368C118.731 188.636 117.887 192.398 116.54 196.572C114.678 202.348 107.116 227.336 105.546 232.919L108.552 233.401C110.789 233.761 113.942 234.267 117.608 234.857C124.94 236.036 134.324 237.548 142.529 238.875C147.673 239.708 153.02 239.498 157.68 238.522C162.351 237.544 166.275 235.807 168.618 233.634L168.894 233.378L169.217 233.572C174.304 236.647 177.335 239.406 179.324 241.828C180.953 243.81 181.876 245.563 182.642 247.015C182.81 247.333 182.97 247.637 183.128 247.925C184.004 249.523 184.821 250.662 186.57 251.441C188.366 252.24 191.186 252.678 196.126 252.678C198.005 252.678 199.381 253.17 200.586 253.773C201.016 253.988 201.432 254.221 201.834 254.446C201.984 254.53 202.131 254.613 202.277 254.694C202.822 254.994 203.356 255.27 203.932 255.489C206.163 256.339 209.231 256.416 215.935 252.74L216.186 252.602L216.432 252.749C231.589 261.82 241.34 256.471 244.263 252.863L244.52 252.546L244.882 252.734C251.866 256.371 256.41 256.803 259.23 255.988C262.021 255.182 263.217 253.126 263.481 251.5L263.546 251.098L263.952 251.08C277.127 250.501 283.575 248.151 286.839 246.227C288.443 245.282 289.292 244.433 289.812 243.913L289.833 243.892C289.962 243.763 290.085 243.64 290.195 243.544C290.297 243.455 290.438 243.344 290.607 243.286C290.819 243.214 291.05 243.236 291.25 243.378C291.408 243.491 291.511 243.654 291.583 243.788C291.607 243.833 291.716 243.949 292.086 244.04C292.437 244.125 292.926 244.164 293.537 244.149C294.755 244.121 296.355 243.887 298.084 243.518C301.547 242.778 305.423 241.519 307.621 240.384C308.562 239.899 309.135 238.893 309.501 237.612C309.823 236.484 309.96 235.235 310.083 234.115C310.1 233.967 310.116 233.821 310.132 233.678C310.2 233.079 310.272 232.515 310.383 232.07C310.438 231.846 310.509 231.63 310.606 231.445C310.702 231.262 310.845 231.068 311.066 230.95C311.566 230.682 312.071 230.96 312.446 231.278C312.855 231.625 313.339 232.205 313.925 233.035C314.806 234.284 315.775 235.011 316.749 235.39C317.727 235.769 318.745 235.81 319.742 235.631C321.739 235.273 323.604 234.036 324.716 232.985L335.956 218.92L336.208 218.93C337.216 218.97 338.467 219.159 339.777 219.357C339.891 219.374 340.006 219.392 340.121 219.409C341.572 219.627 343.095 219.845 344.524 219.903C345.96 219.961 347.249 219.854 348.248 219.458C349.221 219.072 349.916 218.416 350.224 217.324C350.743 215.484 352.526 214.425 354.642 213.772C356.784 213.11 359.447 212.807 362.011 212.603C362.855 212.536 363.686 212.479 364.488 212.425C366.149 212.312 367.683 212.208 368.94 212.034C369.872 211.906 370.601 211.745 371.089 211.536C371.6 211.318 371.678 211.127 371.683 211.024C371.685 210.982 371.66 210.822 371.529 210.496C371.407 210.194 371.219 209.807 370.969 209.342C370.47 208.414 369.741 207.211 368.847 205.811C367.06 203.012 364.634 199.457 362.113 195.788C361.693 195.177 361.27 194.562 360.848 193.948C358.735 190.877 356.621 187.803 354.825 185.107C352.678 181.883 350.959 179.159 350.251 177.618L350.233 177.579L350.222 177.537C349.875 176.233 349.405 174.405 348.896 172.339L349.867 172.1C350.369 174.138 350.833 175.943 351.177 177.238C351.857 178.702 353.517 181.34 355.657 184.552C357.448 187.242 359.557 190.308 361.67 193.378C362.093 193.994 362.516 194.609 362.937 195.222C365.457 198.889 367.892 202.458 369.69 205.273C370.588 206.68 371.333 207.907 371.85 208.868C372.108 209.348 372.315 209.771 372.457 210.123C372.514 210.265 372.566 210.409 372.606 210.549H402.719V211.549H372.565C372.363 211.979 371.93 212.264 371.483 212.455C370.865 212.719 370.027 212.894 369.077 213.025C367.785 213.203 366.192 213.311 364.509 213.426C363.715 213.48 362.902 213.535 362.091 213.6C359.529 213.804 356.964 214.101 354.937 214.727C352.885 215.361 351.558 216.278 351.186 217.596C350.782 219.029 349.836 219.904 348.617 220.387C347.423 220.861 345.968 220.962 344.484 220.902C342.993 220.842 341.419 220.616 339.973 220.398L339.645 220.349C338.428 220.165 337.325 219.998 336.419 219.942L325.455 233.662L325.43 233.686C324.233 234.826 322.185 236.208 319.919 236.616C318.777 236.821 317.568 236.78 316.388 236.322C315.205 235.863 314.086 234.999 313.108 233.612C312.532 232.796 312.107 232.302 311.799 232.041C311.656 231.919 311.569 231.872 311.524 231.855C311.515 231.868 311.504 231.885 311.492 231.91C311.447 231.995 311.399 232.126 311.353 232.311C311.26 232.683 311.194 233.185 311.126 233.79C311.11 233.929 311.094 234.073 311.078 234.221C310.956 235.332 310.81 236.671 310.462 237.886C310.07 239.259 309.39 240.597 308.079 241.273C305.774 242.463 301.804 243.746 298.293 244.496C296.536 244.871 294.867 245.119 293.56 245.149C292.909 245.164 292.322 245.127 291.849 245.011C291.437 244.91 291.016 244.727 290.77 244.373C290.755 244.387 290.74 244.402 290.723 244.418C290.671 244.468 290.611 244.528 290.54 244.599L290.521 244.618C289.978 245.161 289.06 246.08 287.346 247.089C283.925 249.105 277.394 251.449 264.388 252.061C263.949 253.935 262.5 256.084 259.507 256.949C256.381 257.852 251.662 257.326 244.775 253.805C241.253 257.779 231.16 262.61 216.165 253.753C209.524 257.351 206.178 257.414 203.576 256.424C202.934 256.18 202.351 255.877 201.794 255.569C201.635 255.482 201.479 255.394 201.325 255.308C200.931 255.087 200.546 254.871 200.139 254.667C199.028 254.112 197.807 253.678 196.126 253.678C191.166 253.678 188.164 253.244 186.164 252.354C184.118 251.444 183.167 250.077 182.251 248.406C182.084 248.101 181.917 247.786 181.746 247.46C180.982 246.013 180.11 244.36 178.552 242.463C176.688 240.194 173.833 237.57 169.016 234.621C166.469 236.842 162.473 238.54 157.885 239.501C153.111 240.501 147.64 240.715 142.369 239.863C134.164 238.535 124.781 237.024 117.449 235.844C113.783 235.255 110.63 234.748 108.393 234.389L104.876 233.824H0V232.824H104.535C105.998 227.576 113.704 202.109 115.589 196.265C116.92 192.137 117.755 188.419 118.489 185.149C118.575 184.764 118.66 184.385 118.745 184.013C119.54 180.496 120.277 177.496 121.514 175.174C123.248 171.919 123.864 168.462 124.174 164.854C124.287 163.534 124.359 162.18 124.432 160.808C124.557 158.471 124.685 156.082 125.022 153.721C125.445 150.765 126.021 138.605 126.535 124.423ZM311.485 231.846C311.484 231.845 311.487 231.845 311.495 231.846C311.489 231.847 311.486 231.846 311.485 231.846ZM433.255 211.549H413.394V210.549H433.255V211.549ZM361.971 263.662H299.801V262.662H361.971V263.662ZM307.85 292.28H223.816V291.28H307.85V292.28Z" fill="white"></path>
<path d="M128.677 80.7716C130.046 77.0072 136.827 68.0974 150.173 62.5536C163.52 57.0098 162.75 51.6885 160.696 49.7207C162.151 48.6941 165.676 46.9487 168.14 48.1807C168.738 49.6351 169.577 53.2626 168.14 56.1372H173.016C173.957 53.9984 175.275 48.6941 173.016 44.5875C174.214 43.2187 177.379 40.6863 180.459 41.5076V51.2608C181.486 52.4585 183.95 53.8273 185.592 49.7207C185.165 47.4963 184.566 42.7395 185.592 41.5076C186.876 39.9678 206.125 35.348 210.745 38.4278C211.187 38.5211 211.428 39.8836 208.861 44.5875C206.293 49.2915 206.556 52.1134 207.009 52.9363C225.078 52.2703 261.542 50.9565 262.851 51.0292V54.0036C262.947 54.012 263.043 54.0204 263.138 54.0288H265.942L268.578 51.5746C278.062 52.0291 298.629 54.1015 305.028 58.7555C305.513 59.6342 306.955 61.5552 308.846 62.2097C315.006 62.6028 328.696 66.0981 334.174 76.9344C339.652 87.7707 311.048 101.854 296.511 107.361C315.546 100.123 327.537 90.5537 327.537 81.173C327.537 67.0826 300.931 57.3734 263.138 54.0288H262.851V54.0036C253.379 53.1746 243.208 52.7446 232.581 52.7446C179.381 52.7446 133.227 67.9167 133.227 85.5692C133.227 96.6021 150.921 106.079 177.432 112.076C131.784 103.164 126.095 88.6115 128.677 80.7716Z" fill="white"></path>
<path fill-rule="evenodd" clip-rule="evenodd" d="M186.278 41.6229C186.076 41.7349 185.995 41.8065 185.977 41.8277C185.818 42.0184 185.675 42.4215 185.596 43.0597C185.519 43.6742 185.51 44.4225 185.547 45.2189C185.62 46.8099 185.873 48.5306 186.084 49.6263L186.112 49.7703L186.057 49.9064C185.203 52.043 184.048 52.9518 182.807 52.9797C181.638 53.0061 180.635 52.2331 180.08 51.5862L179.96 51.4457V41.9097C178.705 41.6947 177.42 42.058 176.266 42.6682C175.157 43.2549 174.218 44.0455 173.623 44.6664C174.669 46.7539 174.876 49.0802 174.715 51.1392C174.546 53.3048 173.966 55.2203 173.474 56.3385L173.343 56.6372H167.331L167.693 55.9136C168.358 54.5837 168.506 53.0568 168.405 51.6625C168.312 50.3839 168.013 49.2526 167.748 48.5499C166.712 48.106 165.437 48.2072 164.183 48.5827C163.135 48.8969 162.159 49.3863 161.457 49.8192C162.377 51.004 162.819 52.8585 161.651 55.0328C160.349 57.4568 157.071 60.2301 150.366 63.0154C143.753 65.7623 138.772 69.3405 135.28 72.6907C131.782 76.0464 129.802 79.149 129.15 80.9353C127.938 84.6239 128.614 90.0152 135.291 95.6392C139.117 98.8618 144.903 102.148 153.397 105.202C150.343 103.917 147.578 102.562 145.137 101.143C137.37 96.6279 132.728 91.3712 132.728 85.5692C132.728 80.9243 135.761 76.5366 140.969 72.5945C146.188 68.6438 153.676 65.0712 162.798 62.0624C174.982 58.0433 190.128 55.0144 206.779 53.4452L206.72 53.4473L206.572 53.1773C206.271 52.63 206.102 51.5925 206.308 50.1469C206.516 48.6805 207.116 46.742 208.422 44.348C209.698 42.011 210.253 40.5434 210.443 39.672C210.539 39.2337 210.533 38.9871 210.509 38.8713L210.468 38.8439C209.974 38.5142 209.246 38.2656 208.307 38.1057C207.375 37.9469 206.271 37.8813 205.052 37.8932C202.614 37.9169 199.763 38.2494 197.003 38.728C194.245 39.2063 191.593 39.8278 189.555 40.4236C188.535 40.7218 187.678 41.0111 187.041 41.27C186.722 41.3997 186.467 41.5184 186.278 41.6229ZM238.729 52.2931C246.953 52.4238 254.867 52.8172 262.352 53.4584V51.5291C262.012 51.534 261.502 51.5452 260.831 51.5628C259.675 51.593 258.073 51.6409 256.131 51.7026C252.247 51.8259 247.002 52.0041 241.233 52.2054C240.408 52.2342 239.573 52.2635 238.729 52.2931ZM262.352 54.4621V54.5288H263.117C281.98 56.1996 298.017 59.456 309.323 64.0347C314.98 66.3253 319.423 68.9354 322.445 71.8194C325.462 74.6982 327.038 77.8243 327.038 81.173C327.038 85.6438 324.175 90.2539 318.843 94.6859C313.524 99.107 305.825 103.284 296.34 106.891C296.338 106.892 296.336 106.893 296.334 106.894C296.334 106.894 296.334 106.894 296.334 106.894L296.688 107.829C303.977 105.067 314.801 100.154 323.127 94.5612C327.286 91.7677 330.859 88.7806 333.049 85.7804C335.239 82.7785 336.112 79.6586 334.621 76.7088C331.815 71.1577 326.917 67.5092 321.978 65.2028C317.076 62.9137 312.089 61.9255 308.948 61.7153C308.127 61.4159 307.38 60.8423 306.768 60.217C306.142 59.5778 305.687 58.9144 305.466 58.514L305.413 58.4166L305.323 58.3512C303.65 57.1348 301.096 56.1134 298.105 55.2535C295.103 54.3902 291.615 53.6768 288.04 53.0967C280.891 51.9364 273.359 51.3031 268.602 51.0752L268.392 51.0651L265.746 53.5288H263.352V50.5562L262.88 50.53C262.69 50.5194 261.947 50.5333 260.805 50.5631C259.646 50.5934 258.042 50.6414 256.099 50.7031C252.214 50.8265 246.968 51.0047 241.198 51.206C229.808 51.6035 216.376 52.0909 207.342 52.4237C207.229 52.0289 207.15 51.325 207.298 50.2877C207.486 48.9614 208.039 47.137 209.3 44.8271C210.592 42.4601 211.2 40.8946 211.42 39.8854C211.53 39.3849 211.553 38.9795 211.488 38.6661C211.43 38.3856 211.271 38.0876 210.96 37.9709C210.307 37.554 209.447 37.2854 208.475 37.1199C207.465 36.9478 206.297 36.881 205.042 36.8932C202.531 36.9177 199.623 37.2589 196.833 37.7427C194.041 38.2269 191.351 38.8565 189.274 39.4638C188.237 39.7672 187.344 40.0673 186.664 40.3437C186.325 40.4817 186.03 40.6172 185.794 40.748C185.571 40.8713 185.352 41.0163 185.209 41.1875C184.854 41.6128 184.687 42.2663 184.603 42.936C184.517 43.6293 184.51 44.4402 184.548 45.265C184.621 46.8467 184.863 48.537 185.074 49.6686C184.299 51.5259 183.427 51.9655 182.784 51.98C182.113 51.9951 181.432 51.5657 180.96 51.0687V41.1235L180.589 41.0245C178.879 40.5687 177.183 41.0518 175.799 41.7843C174.411 42.5184 173.273 43.5348 172.64 44.2583L172.41 44.5217L172.579 44.8285C173.645 46.7674 173.878 49.0126 173.718 51.0613C173.573 52.9223 173.105 54.5836 172.684 55.6372H168.901C169.4 54.2913 169.494 52.8611 169.402 51.5903C169.294 50.0877 168.922 48.7653 168.602 47.9904L168.531 47.8173L168.364 47.7335C166.964 47.0337 165.316 47.1995 163.897 47.6248C162.465 48.0535 161.172 48.7733 160.409 49.3123L159.913 49.6621L160.351 50.0817C161.227 50.9208 161.876 52.5013 160.77 54.5595C159.634 56.6741 156.623 59.3334 149.982 62.0919C143.249 64.8888 138.165 68.5374 134.588 71.9691C131.021 75.3909 128.927 78.6216 128.208 80.6007L128.205 80.6079L128.202 80.6152C126.835 84.7662 127.717 90.5676 134.647 96.4041C141.549 102.217 154.482 108.105 177.336 112.566L177.543 111.588C164.311 108.595 153.315 104.741 145.64 100.279C137.933 95.7984 133.728 90.8001 133.728 85.5692C133.728 81.3878 136.463 77.2593 141.572 73.3919C146.67 69.533 154.045 66.0028 163.111 63.012C181.239 57.0324 206.023 53.2446 232.581 53.2446C243.025 53.2446 253.025 53.6604 262.352 54.4621ZM318.22 96.4657C318.654 96.1305 319.075 95.7935 319.482 95.4549C324.905 90.9476 328.038 86.083 328.038 81.173C328.038 77.4765 326.288 74.1051 323.135 71.0959C319.988 68.092 315.418 65.4238 309.698 63.1078C299.002 58.7761 284.184 55.6362 266.839 53.8776L268.765 52.0843C273.502 52.3192 280.88 52.9477 287.88 54.0838C291.433 54.6603 294.879 55.3661 297.829 56.2145C300.736 57.0504 303.117 58.0125 304.648 59.0976C304.924 59.5748 305.41 60.2594 306.053 60.9164C306.741 61.6192 307.638 62.3203 308.683 62.6821L308.747 62.7043L308.815 62.7086C311.838 62.9016 316.739 63.86 321.555 66.1089C326.37 68.3575 331.057 71.8748 333.728 77.16C334.976 79.6283 334.327 82.3324 332.241 85.1909C330.154 88.051 326.694 90.9607 322.57 93.731C321.182 94.6635 319.722 95.5774 318.22 96.4657Z" fill="white"></path>
<path fill-rule="evenodd" clip-rule="evenodd" d="M319.508 93.696C324.158 89.4666 326.537 85.182 326.537 81.1729C326.537 77.2031 324.199 73.4827 319.588 70.0893C314.977 66.6962 308.223 63.7349 299.732 61.3003C282.765 56.4346 259.127 53.7445 232.58 53.7445C206.064 53.7445 181.334 57.5272 163.267 63.4868C154.228 66.4684 146.91 69.9776 141.873 73.7904C136.813 77.6205 134.227 81.6195 134.227 85.5691C134.227 89.5187 136.813 93.5177 141.873 97.3477C146.91 101.161 154.228 104.67 163.267 107.651C181.334 113.611 206.064 117.394 232.58 117.394C259.067 117.394 282.673 112.521 299.625 105.479C308.104 101.957 314.875 97.9106 319.508 93.696ZM232.58 118.394C285.779 118.394 327.537 98.8254 327.537 81.1729C327.537 63.5205 285.779 52.7445 232.58 52.7445C179.381 52.7445 133.227 67.9166 133.227 85.5691C133.227 103.222 179.381 118.394 232.58 118.394Z" fill="white"></path>
<path fill-rule="evenodd" clip-rule="evenodd" d="M217.028 81.975C216.263 82.5782 215.941 83.162 215.941 83.6912C215.941 84.2204 216.263 84.8041 217.028 85.4074C217.788 86.0062 218.919 86.5674 220.36 87.0479C223.238 88.0072 227.246 88.6092 231.695 88.6092C236.145 88.6092 240.152 88.0072 243.03 87.0479C244.472 86.5674 245.602 86.0062 246.362 85.4074C247.128 84.8041 247.449 84.2204 247.449 83.6912C247.449 83.162 247.128 82.5782 246.362 81.975C245.602 81.3761 244.472 80.815 243.03 80.3344C240.152 79.3751 236.145 78.7732 231.695 78.7732C227.246 78.7732 223.238 79.3751 220.36 80.3344C218.919 80.815 217.788 81.3761 217.028 81.975ZM220.044 79.3857C223.049 78.3841 227.168 77.7732 231.695 77.7732C236.222 77.7732 240.342 78.3841 243.347 79.3857C244.846 79.8857 246.096 80.492 246.981 81.1895C247.861 81.8827 248.449 82.7242 248.449 83.6912C248.449 84.6581 247.861 85.4997 246.981 86.1928C246.096 86.8904 244.846 87.4967 243.347 87.9966C240.342 88.9982 236.222 89.6092 231.695 89.6092C227.168 89.6092 223.049 88.9982 220.044 87.9966C218.544 87.4967 217.294 86.8904 216.409 86.1928C215.53 85.4997 214.941 84.6581 214.941 83.6912C214.941 82.7242 215.53 81.8827 216.409 81.1895C217.294 80.492 218.544 79.8857 220.044 79.3857Z" fill="white"></path>
<path fill-rule="evenodd" clip-rule="evenodd" d="M228.247 61.6857C216.427 62.1663 204.799 63.8144 197.709 65.1867L197.519 64.2049C204.651 62.8245 216.329 61.1694 228.206 60.6865C240.062 60.2046 252.204 60.8855 260.209 64.2345L259.823 65.157C252.037 61.8997 240.089 61.2043 228.247 61.6857ZM186.772 77.5153C184.191 79.486 182.869 81.5796 182.869 83.6914C182.869 86.0558 184.529 88.3978 187.741 90.5608C190.936 92.7131 195.565 94.6131 201.247 96.1114L200.992 97.0783C195.253 95.565 190.506 93.629 187.182 91.3903C183.874 89.1622 181.869 86.5583 181.869 83.6914C181.869 81.1291 183.473 78.7762 186.166 76.7205C188.866 74.6592 192.737 72.8345 197.462 71.3284L197.766 72.2812C193.098 73.7688 189.346 75.5503 186.772 77.5153ZM280.46 84.5011C280.503 84.2327 280.525 83.9628 280.525 83.6914H281.525C281.525 84.0163 281.499 84.3389 281.448 84.6589C281.071 87.0176 279.341 89.1759 276.668 91.0747C273.987 92.9799 270.29 94.6727 265.838 96.0842C256.931 98.9083 244.91 100.634 231.697 100.634V99.6342C244.833 99.6342 256.748 97.917 265.536 95.131C269.932 93.7374 273.522 92.0834 276.089 90.2595C278.665 88.4293 280.145 86.4764 280.46 84.5011Z" fill="white"></path>
<path fill-rule="evenodd" clip-rule="evenodd" d="M301.17 69.2915C293.633 65.1908 282.869 61.7962 270.02 59.5103L270.196 58.5258C283.103 60.822 293.981 64.242 301.648 68.4131C309.276 72.5634 313.892 77.5556 313.892 83.0585C313.892 86.0346 312.536 88.8646 310.101 91.4799C307.669 94.0926 304.139 96.5172 299.721 98.7031L299.277 97.8068C303.632 95.6522 307.048 93.2922 309.369 90.7986C311.688 88.3076 312.892 85.7096 312.892 83.0585C312.892 78.1499 308.745 73.4129 301.17 69.2915ZM157.093 72.5689C152.782 75.8606 150.5 79.413 150.5 83.0585C150.5 87.1392 153.362 91.1039 158.713 94.7075C164.047 98.3005 171.752 101.459 181.182 103.945L180.927 104.912C171.44 102.411 163.617 99.2164 158.154 95.537C152.707 91.8683 149.5 87.6416 149.5 83.0585C149.5 78.9625 152.064 75.1508 156.487 71.7741C160.917 68.3918 167.289 65.3839 175.097 62.8956L175.401 63.8483C167.65 66.3182 161.398 69.2829 157.093 72.5689Z" fill="white"></path>
<path d="M165.955 116.151C168.928 115.514 175.958 115.004 180.29 118.062C179.335 127.832 177.36 150.238 177.105 161.706C176.786 176.042 177.105 227.65 177.105 231.472C176.043 212.889 173.792 171.582 173.282 155.016C173.212 152.745 173.157 150.938 173.116 149.528C172.37 136.703 170.163 116.151 165.955 116.151Z" fill="white"></path>
<path fill-rule="evenodd" clip-rule="evenodd" d="M167.517 116.392C167.627 116.503 167.731 116.622 167.832 116.749C168.342 117.394 168.798 118.301 169.211 119.385C170.038 121.557 170.739 124.565 171.326 127.945C172.235 133.177 172.883 139.365 173.303 144.871C173.351 144.899 173.389 144.927 173.408 144.95C173.433 144.988 173.464 145.05 173.472 145.073C173.477 145.088 173.485 145.112 173.487 145.122C173.492 145.142 173.495 145.158 173.496 145.165C173.5 145.188 173.501 145.211 173.502 145.218L173.502 145.218C173.508 145.291 173.518 145.508 173.53 145.817C173.582 147.078 173.689 150.112 173.781 152.769L173.713 152.772C173.734 153.459 173.757 154.201 173.781 155.001C174.151 167.019 175.438 192.071 176.522 212.012C176.456 194.652 176.403 170.748 176.604 161.695C176.857 150.319 178.798 128.225 179.763 118.309C177.734 116.971 175.108 116.386 172.58 116.22C170.704 116.097 168.913 116.206 167.517 116.392ZM172.615 149.55C172.657 150.959 172.712 152.764 172.782 155.032C173.292 171.605 175.543 212.92 176.605 231.501L177.604 231.472C177.604 230.797 177.594 228.639 177.58 225.463C177.512 210.615 177.342 173.521 177.604 161.717C177.858 150.271 179.831 127.883 180.787 118.111L180.816 117.822L180.578 117.654C178.304 116.049 175.358 115.4 172.645 115.222C169.925 115.044 167.378 115.335 165.85 115.662L165.954 116.651C166.258 116.651 166.625 116.835 167.048 117.369C167.466 117.899 167.879 118.697 168.276 119.741C169.069 121.822 169.757 124.755 170.34 128.116C171.506 134.828 172.243 143.147 172.615 149.55ZM173.5 145.267C173.5 145.263 173.5 145.261 173.5 145.261C173.5 145.261 173.5 145.263 173.5 145.265L173.5 145.267Z" fill="white"></path>
<path d="M140.93 104.694C140.566 104.22 140.657 103.779 140.884 103.495C140.9 103.883 140.915 104.283 140.93 104.694C141.422 105.334 142.744 106.035 145.682 106.494C152.079 107.493 143.483 106.694 143.283 113.291C143.083 119.888 144.083 163.669 139.285 166.668C135.447 169.067 127.957 194.323 124.691 206.651C126.679 197.444 131.862 175.957 136.686 163.669C141.386 151.701 141.493 120.13 140.93 104.694Z" fill="white"></path>
<path d="M217.976 121.51C217.976 117.566 214.689 118.223 213.046 119.045C211.95 127.353 210.416 145.285 213.046 150.544C216.333 157.118 213.046 184.234 213.046 190.534C213.046 196.834 207.568 211.077 206.472 227.785C205.596 241.152 212.371 250.214 216.571 253.319C215.658 252.04 214.799 248.164 213.046 240.933C210.855 231.894 215.237 204.777 215.237 198.477C215.237 192.177 220.989 173.004 220.441 163.669C219.894 154.335 215.511 140.135 215.237 134.931C214.963 129.727 217.976 126.44 217.976 121.51Z" fill="white"></path>
<path d="M246.091 119.045C248.929 118.354 254.346 119.449 253.314 129.355C252.458 137.578 249.554 146.824 247.699 152.713C246.863 156.705 246.091 159.138 246.091 158.507C246.091 157.814 246.761 155.693 247.699 152.713C249.596 143.654 251.821 126.566 246.091 119.045Z" fill="white"></path>
<path d="M253.314 174.254C253.314 162.645 257.419 148.457 259.471 142.813C256.543 150.689 250.224 167.714 248.371 172.808C246.056 179.176 245.091 193.647 243.74 198.477C242.39 203.307 245.091 226.836 246.091 235.326C246.891 242.118 245.502 249.967 244.836 252.678C257.926 259.306 261.865 255.622 263.401 251.95C261.084 241.772 255.821 220.025 253.314 214.462C250.18 207.509 253.314 188.765 253.314 174.254Z" fill="white"></path>
<path fill-rule="evenodd" clip-rule="evenodd" d="M141.329 102.138L141.384 103.475C141.398 103.808 141.411 104.15 141.424 104.5C141.623 104.705 141.977 104.951 142.58 105.199C143.291 105.492 144.315 105.774 145.76 106C146.558 106.125 147.14 106.224 147.537 106.315C147.733 106.36 147.905 106.408 148.042 106.464C148.111 106.492 148.186 106.527 148.255 106.575C148.322 106.62 148.412 106.696 148.475 106.813C148.547 106.946 148.564 107.097 148.527 107.241C148.493 107.368 148.425 107.461 148.374 107.517C148.278 107.626 148.148 107.71 148.047 107.772C147.918 107.85 147.74 107.944 147.548 108.045C147.433 108.106 147.313 108.169 147.197 108.232C145.863 108.96 143.875 110.285 143.784 113.306C143.75 114.422 143.75 116.609 143.751 119.497C143.752 120.854 143.752 122.366 143.749 123.994C143.74 129.074 143.696 135.265 143.509 141.344C143.321 147.421 142.989 153.4 142.402 158.053C142.109 160.378 141.75 162.389 141.307 163.923C141.086 164.689 140.839 165.352 140.561 165.88C140.288 166.4 139.959 166.837 139.55 167.092C139.177 167.326 138.691 167.893 138.117 168.831C137.554 169.749 136.944 170.959 136.302 172.398C135.018 175.275 133.626 179.025 132.247 183.097C129.492 191.237 126.806 200.622 125.175 206.779L124.203 206.546C126.191 197.338 131.381 175.815 136.221 163.487C138.537 157.59 139.738 146.786 140.283 135.458C140.822 124.229 140.713 112.569 140.437 104.86C140.261 104.584 140.178 104.295 140.186 104.009C140.195 103.68 140.323 103.397 140.494 103.183L141.329 102.138ZM141.468 105.77C141.721 113.489 141.801 124.693 141.281 135.506C140.738 146.816 139.536 157.781 137.152 163.852C134.783 169.885 132.325 178.153 130.203 186.089C130.566 184.97 130.933 183.862 131.3 182.776C132.682 178.693 134.086 174.909 135.388 171.99C136.039 170.532 136.67 169.278 137.264 168.308C137.847 167.357 138.434 166.611 139.02 166.244C139.211 166.125 139.437 165.868 139.676 165.414C139.911 164.968 140.135 164.376 140.346 163.646C140.768 162.185 141.119 160.233 141.41 157.928C141.991 153.323 142.322 147.382 142.509 141.314C142.696 135.248 142.74 129.069 142.749 123.992C142.752 122.38 142.752 120.878 142.751 119.525C142.75 116.623 142.75 114.407 142.784 113.276C142.892 109.7 145.302 108.126 146.718 107.354C146.809 107.304 146.894 107.259 146.971 107.218C146.633 107.153 146.186 107.078 145.606 106.988C144.113 106.755 143.006 106.456 142.199 106.124C141.926 106.012 141.683 105.894 141.468 105.77ZM213.507 119.381C212.968 123.533 212.336 129.928 212.149 135.953C212.054 139.033 212.075 142.007 212.281 144.531C212.49 147.074 212.882 149.097 213.494 150.32C213.938 151.208 214.256 152.409 214.484 153.811C214.713 155.22 214.855 156.864 214.933 158.658C215.088 162.246 214.984 166.467 214.778 170.666C214.58 174.721 214.285 178.767 214.034 182.217L214.007 182.589C213.75 186.13 213.546 188.982 213.546 190.534C213.546 192.167 213.193 194.283 212.662 196.767C212.302 198.451 211.855 200.326 211.371 202.357C211.14 203.328 210.9 204.333 210.657 205.37C209.152 211.801 207.517 219.506 206.972 227.818C206.216 239.348 211.236 247.605 215.233 251.509C215.045 250.935 214.85 250.262 214.641 249.488C214.213 247.9 213.721 245.86 213.112 243.333C212.938 242.612 212.755 241.851 212.56 241.05C211.996 238.721 211.862 235.274 211.964 231.358C212.068 227.43 212.411 222.983 212.822 218.631C213.125 215.434 213.464 212.283 213.771 209.422C213.883 208.388 213.99 207.392 214.09 206.445C214.468 202.865 214.738 200.02 214.738 198.477C214.738 196.849 215.106 194.426 215.636 191.601C215.999 189.67 216.441 187.527 216.902 185.292C217.118 184.248 217.338 183.184 217.555 182.112C218.928 175.346 220.212 168.288 219.943 163.699C219.672 159.078 218.449 153.234 217.249 147.86C217.086 147.132 216.924 146.412 216.765 145.705C216.339 143.814 215.934 142.017 215.6 140.406C215.142 138.198 214.809 136.301 214.738 134.958C214.596 132.25 215.312 130.047 216.032 127.955C216.065 127.859 216.098 127.763 216.131 127.667C216.821 125.669 217.477 123.768 217.477 121.51C217.477 120.589 217.284 120.001 217.027 119.631C216.776 119.269 216.431 119.069 216.02 118.978C215.242 118.807 214.264 119.045 213.507 119.381ZM217.848 119.06C218.258 119.65 218.477 120.459 218.477 121.51C218.477 123.941 217.77 125.986 217.088 127.958C217.051 128.066 217.014 128.173 216.977 128.281C216.259 130.366 215.606 132.408 215.737 134.905C215.803 136.164 216.121 137.993 216.579 140.203C216.911 141.805 217.313 143.589 217.738 145.476C217.898 146.185 218.061 146.908 218.225 147.643C219.422 153.004 220.664 158.926 220.941 163.64C221.219 168.386 219.901 175.582 218.535 182.311C218.316 183.391 218.095 184.46 217.879 185.506C217.419 187.735 216.98 189.863 216.619 191.786C216.088 194.619 215.738 196.955 215.738 198.477C215.738 200.085 215.46 202.991 215.084 206.55C214.984 207.5 214.877 208.499 214.765 209.534C214.458 212.393 214.119 215.535 213.818 218.725C213.408 223.069 213.066 227.49 212.964 231.385C212.862 235.293 213.001 238.625 213.532 240.815C213.728 241.621 213.912 242.385 214.086 243.108C214.695 245.632 215.182 247.654 215.607 249.228C215.879 250.239 216.123 251.054 216.352 251.692C216.584 252.336 216.791 252.765 216.978 253.028L216.274 253.721C211.95 250.524 205.085 241.303 205.974 227.752C206.524 219.356 208.176 211.585 209.684 205.142C209.929 204.094 210.17 203.083 210.402 202.11C210.884 200.087 211.327 198.23 211.684 196.558C212.215 194.077 212.546 192.051 212.546 190.534C212.546 188.936 212.754 186.036 213.01 182.516L213.037 182.148C213.288 178.696 213.582 174.66 213.78 170.617C213.985 166.428 214.087 162.244 213.933 158.701C213.857 156.93 213.717 155.328 213.497 153.971C213.275 152.608 212.977 151.523 212.599 150.767C211.896 149.361 211.494 147.171 211.285 144.613C211.074 142.036 211.054 139.022 211.15 135.922C211.342 129.723 212.001 123.146 212.551 118.979L212.585 118.716L212.823 118.598C213.685 118.167 215.043 117.74 216.235 118.002C216.852 118.137 217.431 118.461 217.848 119.06ZM246.959 119.404C249.556 123.337 250.329 129.299 250.256 135.308C250.216 138.59 249.923 141.92 249.518 144.999C250.916 140.09 252.277 134.488 252.817 129.303C253.325 124.428 252.231 121.871 250.819 120.597C249.651 119.544 248.176 119.286 246.959 119.404ZM248.184 152.84C250.036 146.958 252.951 137.677 253.812 129.407C254.336 124.375 253.237 121.432 251.489 119.855C249.75 118.285 247.498 118.188 245.973 118.559L245.23 118.74L245.693 119.348C248.449 122.964 249.333 128.964 249.256 135.296C249.179 141.586 248.159 148.076 247.215 152.587L247.195 152.65C246.738 154.1 246.344 155.352 246.063 156.329C245.919 156.828 245.803 157.262 245.723 157.618C245.645 157.964 245.591 158.274 245.591 158.507C245.591 158.55 245.592 158.656 245.631 158.763C245.648 158.81 245.711 158.963 245.886 159.051C246.101 159.16 246.297 159.085 246.387 159.03C246.469 158.98 246.519 158.918 246.541 158.89C246.567 158.856 246.587 158.823 246.603 158.796C246.633 158.743 246.66 158.683 246.685 158.625C246.783 158.393 246.913 157.999 247.062 157.483C247.363 156.444 247.766 154.833 248.184 152.84ZM255.288 155.517C252.662 162.599 249.951 169.929 248.842 172.979C247.706 176.103 246.891 181.256 246.19 186.288C246.064 187.193 245.941 188.093 245.821 188.977C245.279 192.964 244.785 196.6 244.222 198.612C244.069 199.159 243.965 200.009 243.912 201.123C243.86 202.228 243.858 203.563 243.897 205.065C243.976 208.069 244.217 211.718 244.533 215.487C245.164 223.025 246.088 231.023 246.588 235.267C247.362 241.843 246.113 249.369 245.414 252.409C251.725 255.554 255.756 256.195 258.356 255.686C260.877 255.191 262.14 253.592 262.878 251.902C261.717 246.811 259.843 238.923 257.945 231.601C256.023 224.181 254.091 217.402 252.859 214.668C252.035 212.841 251.641 210.288 251.493 207.312C251.345 204.324 251.444 200.855 251.64 197.166C251.765 194.826 251.928 192.399 252.093 189.944C252.449 184.637 252.815 179.204 252.815 174.254C252.815 168.178 253.929 161.411 255.288 155.517ZM247.902 172.637C249.755 167.541 256.075 150.514 259.003 142.639L259.942 142.984C257.897 148.606 253.815 162.731 253.815 174.254C253.815 179.238 253.446 184.731 253.088 190.056C252.923 192.501 252.762 194.91 252.639 197.219C252.443 200.899 252.346 204.327 252.492 207.262C252.638 210.209 253.027 212.607 253.771 214.257C255.046 217.086 256.999 223.961 258.913 231.35C260.834 238.76 262.73 246.746 263.889 251.839L263.925 251.995L263.863 252.143C263.056 254.072 261.58 256.073 258.548 256.667C255.569 257.251 251.187 256.454 244.61 253.124L244.256 252.945L244.351 252.559C245.011 249.874 246.384 242.092 245.595 235.384C245.095 231.139 244.169 223.127 243.536 215.571C243.22 211.793 242.977 208.123 242.898 205.092C242.858 203.576 242.859 202.214 242.914 201.075C242.967 199.945 243.075 199.003 243.259 198.343C243.801 196.404 244.283 192.865 244.825 188.88C244.946 187.988 245.071 187.074 245.199 186.15C245.897 181.147 246.722 175.881 247.902 172.637Z" fill="white"></path>
<path d="M303.77 109.841C298.648 106.549 293.405 111.213 291.423 113.957C290.944 115.291 290.637 119.15 293.233 123.909C296.478 129.858 297.289 146.353 297.289 156.899C297.289 167.445 289.447 177.721 289.988 192.863C290.528 208.006 293.233 220.715 295.666 232.884C297.613 242.618 304.229 241.807 307.294 240.185C285.661 215.307 297.289 177.721 299.182 165.282C301.074 152.843 303.77 134.996 300.534 126.884C297.944 120.394 301.612 112.818 303.77 109.841Z" fill="white"></path>
<path fill-rule="evenodd" clip-rule="evenodd" d="M291.871 114.191C291.46 115.437 291.178 119.098 293.672 123.67C294.518 125.222 295.189 127.426 295.725 129.989C296.262 132.56 296.67 135.528 296.975 138.632C297.586 144.839 297.789 151.616 297.789 156.899C297.789 161.65 296.226 166.345 294.565 171.336C294.348 171.99 294.128 172.648 293.911 173.313C292.021 179.082 290.22 185.366 290.487 192.846C290.996 207.076 293.419 219.149 295.736 230.686C295.876 231.388 296.017 232.088 296.157 232.786C297.107 237.54 299.164 239.588 301.228 240.322C303.076 240.979 305.05 240.63 306.489 240.015C295.918 227.525 293.48 211.99 293.916 198.053C294.241 187.654 296.174 178.064 297.541 171.284C298.028 168.873 298.442 166.817 298.687 165.207C299.634 158.984 300.778 151.432 301.282 144.425C301.789 137.39 301.64 131.007 300.069 127.069C298.719 123.686 299.01 120.048 299.89 116.91C300.69 114.058 301.989 111.575 303.052 109.996C300.829 108.778 298.601 109.105 296.642 110.083C294.566 111.119 292.838 112.871 291.871 114.191ZM296.196 109.188C298.503 108.037 301.29 107.653 304.04 109.421L304.485 109.707L304.175 110.135C303.128 111.58 301.699 114.165 300.853 117.18C300.007 120.197 299.759 123.592 300.998 126.699C302.663 130.873 302.785 137.47 302.28 144.496C301.772 151.55 300.622 159.141 299.676 165.357C299.422 167.028 298.998 169.128 298.505 171.575C297.139 178.35 295.237 187.78 294.915 198.084C294.478 212.084 296.972 227.553 307.671 239.857L308.084 240.332L307.528 240.627C305.918 241.479 303.348 242.138 300.893 241.264C298.397 240.376 296.172 237.962 295.176 232.982C295.036 232.28 294.894 231.576 294.753 230.87C292.438 219.341 289.999 207.195 289.488 192.881C289.214 185.218 291.064 178.793 292.96 173.002C293.18 172.332 293.399 171.673 293.616 171.021C295.283 166.005 296.789 161.477 296.789 156.899C296.789 151.636 296.586 144.894 295.98 138.729C295.677 135.647 295.274 132.717 294.746 130.193C294.217 127.661 293.57 125.571 292.794 124.149C290.141 119.285 290.418 115.278 290.952 113.788L290.976 113.722L291.017 113.664C292.042 112.246 293.906 110.331 296.196 109.188Z" fill="white"></path>
<path fill-rule="evenodd" clip-rule="evenodd" d="M337.326 107.492C336.008 109.262 334.918 111.312 334.322 112.653L333.408 112.247C334.027 110.855 335.152 108.737 336.524 106.894C337.211 105.973 337.969 105.106 338.768 104.432C339.562 103.762 340.43 103.254 341.335 103.103L341.5 104.089C340.843 104.199 340.138 104.585 339.413 105.197C338.692 105.805 337.986 106.607 337.326 107.492Z" fill="white"></path>
<path d="M336.187 219.51C330.501 218.507 321.876 190.133 318.811 175.502C316.442 173.149 311.704 169.856 311.704 175.502C311.704 182.559 312.229 234.768 321.576 234.768C327.7 234.768 335.072 224.665 336.187 219.51Z" fill="white"></path>
<path fill-rule="evenodd" clip-rule="evenodd" d="M271.129 137.521C270.215 130.642 268.67 123.451 267.527 118.934L268.496 118.688C269.647 123.233 271.2 130.463 272.121 137.39C272.581 140.852 272.885 144.25 272.899 147.204C272.914 150.142 272.643 152.702 271.914 154.451L270.991 154.066C271.639 152.511 271.914 150.121 271.899 147.209C271.885 144.313 271.587 140.961 271.129 137.521ZM327.088 171.018C324.851 160.091 324.787 149.166 325.418 142.431L326.414 142.525C325.791 149.176 325.853 160 328.068 170.817C330.285 181.647 334.642 192.383 342.539 198.958L341.899 199.727C333.744 192.936 329.323 181.933 327.088 171.018ZM154.385 200.748C156.835 188.002 158.15 174.259 157.054 166.033L158.045 165.901C159.164 174.293 157.821 188.167 155.367 200.937C154.138 207.33 152.626 213.467 150.995 218.527C149.371 223.565 147.608 227.601 145.85 229.736L145.078 229.1C146.704 227.126 148.421 223.254 150.043 218.22C151.659 213.209 153.161 207.113 154.385 200.748ZM316.989 173.308C317.793 173.878 318.554 174.543 319.162 175.147L319.268 175.253L319.299 175.399C320.827 182.693 323.744 193.422 326.986 202.447C328.608 206.961 330.304 211.031 331.942 214.028C332.762 215.527 333.557 216.74 334.309 217.602C335.075 218.479 335.735 218.923 336.273 219.017L336.784 219.108L336.675 219.615C336.093 222.306 333.915 226.195 331.137 229.399C329.742 231.009 328.178 232.467 326.559 233.527C324.945 234.584 323.24 235.267 321.575 235.267C320.146 235.267 318.984 234.267 318.045 232.777C317.097 231.274 316.294 229.151 315.607 226.631C314.232 221.583 313.287 214.802 312.636 207.827C311.335 193.87 311.203 179.035 311.203 175.502C311.203 174.049 311.503 173.017 312.14 172.423C312.804 171.805 313.684 171.793 314.502 172.021C315.323 172.249 316.192 172.742 316.989 173.308ZM312.822 173.155C312.496 173.458 312.203 174.132 312.203 175.502C312.203 179.025 312.335 193.823 313.632 207.734C314.281 214.694 315.22 221.406 316.572 226.368C317.249 228.853 318.021 230.864 318.89 232.244C319.769 233.637 320.668 234.267 321.575 234.267C322.973 234.267 324.486 233.689 326.011 232.69C327.532 231.695 329.028 230.305 330.381 228.744C332.938 225.795 334.917 222.31 335.586 219.855C334.885 219.578 334.206 219.004 333.556 218.26C332.736 217.321 331.901 216.038 331.065 214.507C329.391 211.445 327.673 207.319 326.045 202.785C322.808 193.775 319.897 183.085 318.351 175.752C317.794 175.209 317.116 174.624 316.411 174.123C315.654 173.586 314.894 173.168 314.234 172.984C313.572 172.8 313.12 172.877 312.822 173.155ZM191.65 221.315C191.221 207.723 191.398 192.456 191.694 182.544L192.694 182.574C192.398 192.472 192.221 207.718 192.649 221.284C192.863 228.068 193.229 234.422 193.805 239.474C194.093 242.001 194.433 244.192 194.83 245.944C195.231 247.713 195.68 248.978 196.158 249.696L195.326 250.25C194.74 249.371 194.26 247.951 193.855 246.166C193.446 244.364 193.102 242.133 192.811 239.588C192.231 234.496 191.864 228.111 191.65 221.315ZM269.552 221.254C268.896 213.217 269.866 204.668 270.963 199.244L271.943 199.442C270.86 204.801 269.903 213.253 270.549 221.173C270.872 225.132 271.594 228.937 272.888 232.149C274.181 235.361 276.033 237.948 278.598 239.527L278.074 240.378C275.27 238.653 273.304 235.86 271.96 232.523C270.616 229.186 269.88 225.273 269.552 221.254Z" fill="white"></path>
<path d="M377.665 49.0194C377.665 49.0194 386.12 76.5248 373.118 85.8407C367.384 89.9493 355.115 94.5218 355.115 94.5218C362.862 93.1719 368.911 90.9767 372.174 93.3179C376.252 96.2444 380.523 101.232 383.634 102.144C378.321 105.242 366.802 109.101 359.519 98.4689C357.366 95.3256 356.65 96.3999 355.115 94.5218C355.115 94.5218 345.014 78.4138 356.013 65.7911C365.849 54.5021 377.665 49.0194 377.665 49.0194Z" fill="#38FFA6"></path>
<path d="M137.267 3.66984C137.267 3.66984 117.24 30.8636 127.879 45.7265C132.571 52.2816 144.258 61.6742 144.258 61.6742C136.278 57.4317 130.493 52.8657 125.996 54.2744C120.374 56.0352 113.735 59.9906 109.962 59.8838C114.587 65.1786 125.729 73.5213 137.881 64.4399C141.473 61.7552 141.839 63.1899 144.258 61.6742C144.258 61.6742 161.643 47.5837 154.495 29.803C148.102 13.9008 137.267 3.66984 137.267 3.66984Z" fill="#38FFA6"></path>
<path fill-rule="evenodd" clip-rule="evenodd" d="M145.348 64.542C145.401 64.6862 145.453 64.8267 145.504 64.9633L146.451 64.6446C146.407 64.4949 146.349 64.3354 146.277 64.1681C143.342 56.0777 138.667 35.9914 142.302 16.8109L141.319 16.6247C138.018 34.0454 141.483 52.161 144.378 61.6207C142.677 60.0663 139.88 58.6142 135.624 58.3159C131.421 58.0214 128.646 58.8996 126.224 59.666C126.054 59.7197 125.886 59.7729 125.719 59.8252C123.206 60.6122 121.013 61.1732 117.701 60.1105L117.396 61.0627C121.003 62.2201 123.438 61.5873 126.018 60.7795C126.184 60.7276 126.35 60.6751 126.517 60.6222C128.925 59.8607 131.544 59.0325 135.554 59.3134C141.888 59.7573 144.605 62.8486 145.348 64.542Z" fill="white"></path>
<path fill-rule="evenodd" clip-rule="evenodd" d="M100.72 228.635C87.7142 225.165 80.711 207.663 67.0937 207.738C56.8112 207.738 56.5333 225.316 36.1906 224.787C33.9118 224.712 28.4648 221.468 26.1304 221.544C22.2397 221.694 21.7951 224.938 19.7386 225.768C17.5154 226.749 8.011 227.202 8.51123 228.71L100.72 228.635Z" fill="#38FFA6"></path>
<path fill-rule="evenodd" clip-rule="evenodd" d="M162.255 248.005C145.259 244.801 136.108 228.641 118.314 228.711C104.877 228.711 103.174 248.493 76.5918 248.005C91.706 248.282 130.924 248.023 162.255 248.005Z" fill="#38FFA6"></path>
<path fill-rule="evenodd" clip-rule="evenodd" d="M431.848 234.113C423.907 232.622 419.631 225.103 411.316 225.135C405.038 225.135 404.868 232.687 392.447 232.46C399.51 232.589 417.209 234.122 431.848 234.113Z" fill="white"></path>
</svg>
