<svg width="45" height="45" fill="none" xmlns="http://www.w3.org/2000/svg"><circle cx="22.139" cy="22.139" r="22.139" fill="#F3F5F6"/><g clip-path="url('#clip0_1341_2079')"><path d="M27.491 32.924a1.19 1.19 0 0 1-1.107-.145c-2.026-1.443-5.598-4.062-5.598-4.062l-2.409-1.852a.998.998 0 0 1-.062-1.534l9.296-8.384a.277.277 0 0 0 .033-.377.284.284 0 0 0-.376-.064L15.51 24.015c-.094.06-.188.11-.29.153l-.473.2c-.439.186-.928.21-1.383.066a391.57 391.57 0 0 0-4.771-1.47.828.828 0 0 1-.593-.765.827.827 0 0 1 .542-.799c5.278-1.953 18.191-6.798 22.384-8.35a.8.8 0 0 1 .797.14.78.78 0 0 1 .26.758c-.791 3.715-2.899 14.052-3.768 18.136a1.16 1.16 0 0 1-.724.84Z" fill="#8C92A1"/></g><defs><clipPath id="clip0_1341_2079"><path fill="#fff" transform="translate(8 10)" d="M0 0h24v24H0z"/></clipPath></defs></svg>