<svg width="45" height="45" viewBox="0 0 45 45" fill="none" xmlns="http://www.w3.org/2000/svg">
<circle cx="22.1386" cy="22.1386" r="22.1386" fill="#F3F5F6"></circle>
<g clip-path="url('#clip0_1341_2079')">
<path d="M27.491 32.9241C27.121 33.0641 26.706 33.0071 26.384 32.7791C24.358 31.3361 20.786 28.7171 20.786 28.7171L18.3772 26.8647C17.8822 26.484 17.851 25.7498 18.3148 25.3315C20.2186 23.6143 24.7497 19.5276 27.611 16.9471C27.719 16.8491 27.734 16.6851 27.644 16.5701C27.555 16.4551 27.391 16.4281 27.268 16.5061C23.3199 19.0274 16.553 23.3491 15.5105 24.015C15.4164 24.0751 15.3223 24.1241 15.2195 24.1677L14.7474 24.3677C14.3083 24.5539 13.8185 24.5773 13.3636 24.4342C12.3098 24.1027 10.2665 23.4637 8.593 22.9631C8.25 22.8601 8.012 22.5531 8 22.1991C7.989 21.8461 8.207 21.5241 8.542 21.4001C13.82 19.4471 26.733 14.6021 30.926 13.0501C31.198 12.9491 31.503 13.0031 31.723 13.1901C31.943 13.3771 32.043 13.6681 31.983 13.9481C31.192 17.6631 29.084 28.0001 28.215 32.0841C28.133 32.4671 27.861 32.7831 27.491 32.9241Z" fill="#8C92A1"></path>
</g>
<defs>
<clipPath id="clip0_1341_2079">
<rect width="24" height="24" fill="white" transform="translate(8 10)"></rect>
</clipPath>
</defs>
</svg>
